<svg id="Layer_1" data-name="Layer 1" xmlns="http://www.w3.org/2000/svg" viewBox="0 0 399.9 122.1"><defs><style>.cls-1{fill:#fff;}</style></defs><path class="cls-1" d="M64.61,34.72c3.92,0,7.68-3.45,7.5-7.5a7.63,7.63,0,0,0-7.5-7.5c-3.92,0-7.68,3.45-7.5,7.5a7.63,7.63,0,0,0,7.5,7.5Z"/><path class="cls-1" d="M58.38,48.46a395.06,395.06,0,0,0,1.84,49.61,8.13,8.13,0,0,0,2.2,5.3,7.65,7.65,0,0,0,5.3,2.2c3.73-.17,7.92-3.32,7.5-7.5a395.06,395.06,0,0,1-1.84-49.61,7.57,7.57,0,0,0-7.5-7.5,7.65,7.65,0,0,0-7.5,7.5Z"/><path class="cls-1" d="M79.69,66.34c8.64,8.78,17.79,17,26.93,25.3a7.52,7.52,0,0,0,6.3,2.06c2.11-.28,4.56-1.5,5.48-3.58q6-13.45,12.18-26.81a8.12,8.12,0,0,0,.76-5.78,7.64,7.64,0,0,0-3.45-4.48c-3.31-1.76-8.5-1.11-10.26,2.69q-6.21,13.35-12.18,26.81L117.23,81c-9.15-8.25-18.29-16.52-26.93-25.3-2.76-2.8-7.88-3-10.61,0a7.64,7.64,0,0,0,0,10.61Z"/><path class="cls-1" d="M30.1,74.49l18.57-3.61a7.55,7.55,0,0,0,4.48-3.45,7.49,7.49,0,0,0-2.69-10.26,8.32,8.32,0,0,0-5.78-.75L26.12,60a7.6,7.6,0,0,0-4.49,3.44,7.68,7.68,0,0,0-.75,5.78,7.54,7.54,0,0,0,3.45,4.48,8.3,8.3,0,0,0,5.77.76Z"/><path class="cls-1" d="M29.84,66.77l-.39,14.69-.19,7.22c-.06,2.37,0,4.79-.22,7.13l.27-2a2,2,0,0,1-.17.62l.76-1.8,2-2.07,1.79-.75-.32.07,2-.27a35.73,35.73,0,0,1-7.23-.46l2,.27a31,31,0,0,1-7.46-1.93l1.79.76A21.42,21.42,0,0,1,21,86.36c-.22-.16-.43-.33-.66-.48,1.72,1.13.92.71.49.34s-.88-.81-1.3-1.25l-.59-.67c-.67-.74.44.55.5.68a16.22,16.22,0,0,0-1-1.48,24.13,24.13,0,0,1-1.66-3.19l.75,1.79a34.47,34.47,0,0,1-2.25-8.58l.26,2a58.35,58.35,0,0,1,.08-14.88l-.27,2a47.68,47.68,0,0,1,3.21-12.19l-.76,1.79A37,37,0,0,1,19.87,48c.37-.62.76-1.22,1.17-1.81.21-.3.44-.58.63-.88-1.3,2-.56.73-.16.26A25.9,25.9,0,0,1,24.7,42.4c.53-.44,1.39-.76-.37.27.35-.21.67-.49,1-.71A18.44,18.44,0,0,1,28,40.51l-1.79.75a13.43,13.43,0,0,1,2.86-.84l-2,.26a10.66,10.66,0,0,1,2.46,0l-2-.27a8.83,8.83,0,0,1,2,.56l-1.79-.76c.32.15.62.33.93.48,1.16.57-1.43-1.32-.28-.22s-.66-1.11-.3-.48c.19.35.39.67.55,1l-.76-1.79a6.69,6.69,0,0,1,.32,1.32c.24,1.72,2,3.65,3.45,4.48A7.49,7.49,0,0,0,41.91,42.3a8.79,8.79,0,0,0,.75-5.78c-.49-3.57-3.12-6.58-6-8.54a14.51,14.51,0,0,0-9.21-2.35c-6.2.59-11.69,4-15.85,8.53-7,7.58-10,17.37-11.19,27.4C-.65,71,.13,81.34,4.7,89.83A25.73,25.73,0,0,0,16,100.8a43.19,43.19,0,0,0,16.69,3.77c2.34.12,4.67.14,6.81-1,3-1.66,4.34-4.6,4.57-7.88s.19-6.31.27-9.46l.51-19.42a7.55,7.55,0,0,0-7.5-7.5,7.64,7.64,0,0,0-7.5,7.5Z"/><path class="cls-1" d="M142.36,70.05a142.78,142.78,0,0,0,17.27-1.55c2.53-.37,5-.81,7.54-1.34,2.69-.56,6-1,8.38-2.41A9.37,9.37,0,0,0,180,57.16a19,19,0,0,0-.64-4.9,32.35,32.35,0,0,0-2.76-7.64,23.19,23.19,0,0,0-11.74-11,19.28,19.28,0,0,0-17.09.78c-4.81,2.76-7.66,7.44-9.66,12.45a53.11,53.11,0,0,0-3,13.66A38.62,38.62,0,0,0,136.1,75a28.06,28.06,0,0,0,10.54,15.06,36.68,36.68,0,0,0,14.44,6.2c3.83.81,8.29-1.12,9.23-5.24.85-3.76-1.14-8.35-5.24-9.22a37.65,37.65,0,0,1-6.66-2l1.79.76a30.56,30.56,0,0,1-3.62-1.81c-.55-.33-1.08-.68-1.6-1-1.2-.85.48.26.45.37s-.83-.69-.87-.73A18.94,18.94,0,0,1,153.2,76c-.22-.23-.43-.47-.63-.71-1-1.13.33.48.34.47-.28.13-2-3.43-2.13-3.76l.75,1.79a24.94,24.94,0,0,1-1.64-6.06l.27,2a39.62,39.62,0,0,1,.1-10.09l-.27,2a45.78,45.78,0,0,1,2.82-11.36l-.76,1.79a22.5,22.5,0,0,1,1.28-2.55c.18-.3.36-.6.56-.89,1-1.56-1,1-.13.13.55-.59,1.13-1.11,1.71-1.67-1.65,1.6-.75.58-.1.21a12.65,12.65,0,0,1,1.28-.63l-1.79.75a12.73,12.73,0,0,1,2.51-.67l-2,.27a13.41,13.41,0,0,1,3.35,0l-2-.27a15.31,15.31,0,0,1,3.28.9l-1.79-.76a21,21,0,0,1,2.68,1.45c.62.44.42.28-.61-.5.2.16.39.33.57.49a13.09,13.09,0,0,1,1,1c.47.5,1.08,1.69,0-.16.27.45.62.86.89,1.31a20.3,20.3,0,0,1,1.47,2.81l-.75-1.79A27.91,27.91,0,0,1,165.25,58L165,56a6.07,6.07,0,0,1,.05,1.13l.27-2-.09.36.76-1.8c2.26-1.75,2.83-2.35,1.69-1.78l1.79-.76A60.93,60.93,0,0,1,162,52.94q-3.87.77-7.79,1.3l2-.27a128.15,128.15,0,0,1-13.85,1.08c-3.92.09-7.68,3.38-7.5,7.5s3.3,7.6,7.5,7.5Z"/><path class="cls-1" d="M210.89,31.55a168.4,168.4,0,0,1,7.8,32.93l-.27-2c1.33,10,2,20,2.51,30.07.21,3.91,3.29,7.69,7.5,7.5,3.88-.17,7.72-3.3,7.5-7.5C235,75.5,233.75,58.33,229.6,41.7c-1.19-4.78-2.62-9.49-4.24-14.14-1.29-3.69-5.19-6.54-9.23-5.24-3.65,1.19-6.62,5.26-5.24,9.23Z"/><path class="cls-1" d="M213.81,37.81c1.7-.88,3.43-1.7,5.19-2.44l-1.79.75a41.67,41.67,0,0,1,10.38-3l-2,.27a22.82,22.82,0,0,1,5.78-.06l-2-.27a16.55,16.55,0,0,1,3.79,1l-1.79-.75a12.74,12.74,0,0,1,2.75,1.58l-1.51-1.18A12.55,12.55,0,0,1,234.84,36l-1.17-1.52a13.74,13.74,0,0,1,1.6,2.79l-.76-1.8a15.33,15.33,0,0,1,1,3.7l-.27-2a17.23,17.23,0,0,1,0,4.48l.27-2a18.4,18.4,0,0,1-1.2,4.49l.76-1.79A16.49,16.49,0,0,1,233,45.89l1.17-1.52a14.39,14.39,0,0,1-2.33,2.35l1.51-1.17a12.26,12.26,0,0,1-2.59,1.53l1.79-.76-.68.26A8,8,0,0,0,227.38,50a7.63,7.63,0,0,0-.75,5.78c1.18,3.64,5.26,6.64,9.22,5.24a20.75,20.75,0,0,0,11.31-9.43,24.73,24.73,0,0,0,3.2-13.16,21.89,21.89,0,0,0-5.58-13.91c-3.79-4.17-9.38-6-14.88-6.33-8.23-.44-16.51,2.94-23.66,6.64a7.55,7.55,0,0,0-2.69,10.26,7.67,7.67,0,0,0,10.26,2.69Z"/><path class="cls-1" d="M232.86,62.93a10.52,10.52,0,0,1,1.52-.81l-1.79.75a9.55,9.55,0,0,1,2.23-.6l-2,.26a11.33,11.33,0,0,1,2.85,0l-2-.27a14.5,14.5,0,0,1,3.42,1l-1.79-.75a18.86,18.86,0,0,1,3.59,2l.5.36c.74.53-1.76-1.4-1-.79.28.23.56.45.83.69.56.49,1.1,1,1.61,1.53s1,1.12,1.48,1.69.88,1.3-.77-1c.12.18.26.35.38.52l.65.93a24.94,24.94,0,0,1,2.13,4l-.75-1.8a21.17,21.17,0,0,1,1.4,5l-.27-2a16.07,16.07,0,0,1,0,4.27l.27-2a13.92,13.92,0,0,1-.92,3.4l.76-1.79a13.81,13.81,0,0,1-1.34,2.44c-.07.11-.16.22-.23.34-.45.68,1-1.28.87-1.12s-.33.4-.49.59c-.35.39-.72.77-1.1,1.13l-.55.49-.36.3c-.64.56,1.23-.92,1.07-.83-.5.3-1,.7-1.46,1a25.47,25.47,0,0,1-3.48,1.8l1.79-.76a42.09,42.09,0,0,1-10.65,2.71l2-.27c-2.19.29-4.38.46-6.58.55-3.92.16-7.69,3.33-7.5,7.5.17,3.92,3.3,7.67,7.5,7.5,8.47-.35,18-1.6,25.16-6.51a24.48,24.48,0,0,0,7.45-7.61,22,22,0,0,0,2.86-9.48c.51-5.45-1.44-11.3-4.3-15.87a31.34,31.34,0,0,0-11.67-11.25c-5.85-3-13.11-3.94-18.89-.16-3.28,2.14-5,6.74-2.69,10.26,2.11,3.28,6.74,5,10.26,2.69Z"/><path class="cls-1" d="M280.19,50.82c.16-.3.32-.59.5-.88.43-.67,1-.84-.39.45.43-.41.83-.88,1.26-1.3,1-1-.61.47-.61.45a6,6,0,0,1,.83-.55,15,15,0,0,1,1.78-.92l-1.79.76a17.19,17.19,0,0,1,4.28-1.17l-2,.26a19.93,19.93,0,0,1,4.82,0l-2-.27a16.46,16.46,0,0,1,3.66.9l-1.79-.76c.49.21.93.46,1.39.7,1.2.62-1.3-1.25-.19-.1s-.79-1.42-.2-.27c.21.42.44.82.63,1.26l-.76-1.8a15,15,0,0,1,.81,3.16l-.27-2a86.76,86.76,0,0,1,.4,9.54L290.8,69l.48,21.67c.09,3.92,3.39,7.69,7.5,7.5s7.6-3.29,7.5-7.5l-.8-35.87c-.13-6.05-.42-12.63-5-17.15-4.83-4.7-12-5.38-18.38-4.44-6,.9-11.93,4.6-14.82,10.06-1.83,3.46-1,8.31,2.69,10.26,3.47,1.83,8.3,1,10.26-2.69Z"/><path class="cls-1" d="M301,60.73a25.38,25.38,0,0,0-9.42-3.49,45.2,45.2,0,0,0-10.12-.86c-4.29.27-8.38,1.63-11.43,4.78A20,20,0,0,0,265.2,70c-1.78,7-1,14.82,3.85,20.35,4.47,5,12.48,6.31,18.69,4.3,7.42-2.4,12.44-8.47,16.29-15,2-3.37.88-8.37-2.69-10.26a7.65,7.65,0,0,0-10.26,2.69c-.65,1.1-1.32,2.18-2,3.23-.19.28-.39.55-.58.82-.58.83.32-.37.44-.55a14.5,14.5,0,0,1-1.29,1.53c-.4.44-.82.87-1.25,1.28-.24.23-.49.44-.73.66-.79.72.55-.33.59-.43-.14.37-1.31.91-1.64,1.1a14.75,14.75,0,0,1-1.64.82l1.79-.76a14.51,14.51,0,0,1-3.36.9l2-.27a14.06,14.06,0,0,1-3.11,0l2,.27a11.34,11.34,0,0,1-2.93-.79l1.79.76c-.41-.19-.78-.42-1.18-.62-.94-.48.78.58.7.59s-.53-.47-.62-.56-.3-.34-.46-.5c-.52-.52.83,1.33.49.6-.25-.52-.57-1-.8-1.54l.76,1.8a14.29,14.29,0,0,1-.79-3l.27,2a21.28,21.28,0,0,1,0-5.35l-.26,2a18.46,18.46,0,0,1,1.07-4.13l-.75,1.8a12.33,12.33,0,0,1,.68-1.42c.14-.25.3-.49.45-.73.6-1-1,1.18-.45.57.21-.22.81-1.08,1.09-1.07,0,0-1.62,1.09-.68.58.33-.18.65-.36,1-.52l-1.79.76a11.26,11.26,0,0,1,2.48-.68l-2,.27a32.33,32.33,0,0,1,8.16.32l-2-.27a26,26,0,0,1,6.09,1.54l-1.79-.76a17.62,17.62,0,0,1,2.58,1.36A7.57,7.57,0,0,0,303.67,71,7.66,7.66,0,0,0,301,60.73Z"/><path class="cls-1" d="M343.89,49.43c-2.64-2.24-5.34-4.61-8.51-6.07-4.11-1.91-8.82-2.89-13.28-1.52C315.19,44,311,50.43,309.91,57.31a43.62,43.62,0,0,0-.49,10.58,33,33,0,0,0,2.78,11.84c3.06,6.42,10.73,10.53,17.76,9.92a21.11,21.11,0,0,0,18.22-14.91,7.56,7.56,0,0,0-5.24-9.23,7.67,7.67,0,0,0-9.23,5.24c-.15.46-.32.92-.5,1.37l.75-1.79a14.57,14.57,0,0,1-1.13,2.09c-.1.16-.2.31-.31.46-.45.61-.28.39.51-.65-.27.23-.49.56-.74.81s-.52.51-.79.76c-1,.92,1.44-1,.37-.28a16.64,16.64,0,0,1-2.22,1.25l1.8-.76a13,13,0,0,1-3.13.87l2-.27a12.93,12.93,0,0,1-2.85,0l2,.26a13.34,13.34,0,0,1-3.1-.8l1.79.75a13.7,13.7,0,0,1-1.58-.79,6.76,6.76,0,0,0-.88-.59c.3.08,1.48,1.24.57.38-.22-.2-.42-.41-.62-.63-.83-.85.86,1.29.4.55a16.42,16.42,0,0,1-1.07-2l.75,1.79A23.48,23.48,0,0,1,324.38,68l.27,2a39.92,39.92,0,0,1-.06-10.36l-.27,2a20.88,20.88,0,0,1,1.36-5l-.75,1.79a14.29,14.29,0,0,1,.77-1.51c.14-.24.32-.46.45-.7.33-.61-1.32,1.45-.46.61.3-.29,1.56-1.39.44-.52s-.23.19.05,0a9.44,9.44,0,0,1,.9-.45l-1.79.75a9.66,9.66,0,0,1,2-.57l-2,.27a10.88,10.88,0,0,1,2.55,0l-2-.27a14.15,14.15,0,0,1,3.32.88l-1.79-.75a20.25,20.25,0,0,1,3.7,2.12c.23.16.46.35.69.51-1.69-1.15-.73-.57-.33-.25.61.5,1.21,1,1.81,1.52a8,8,0,0,0,5.3,2.19,7.6,7.6,0,0,0,5.3-2.19c2.57-2.8,3.2-7.9,0-10.61Z"/><path class="cls-1" d="M345.79,7.5q4.08,37.78,5.63,75.78.43,10.68.67,21.35c.09,3.92,3.39,7.69,7.5,7.5s7.59-3.3,7.5-7.5q-.84-38-4.2-75.87-1-10.64-2.1-21.26a8.13,8.13,0,0,0-2.2-5.3,7.48,7.48,0,0,0-10.6,0c-1.27,1.38-2.41,3.37-2.2,5.3Z"/><path class="cls-1" d="M364.06,79.71A349.81,349.81,0,0,0,389.66,48,7.51,7.51,0,0,0,387,37.72c-3.88-2-7.82-.73-10.27,2.69q-2.79,3.9-5.69,7.73l-.71.93c-.16.21-1,1.31-.27.35s-.11.15-.28.35l-.72.93q-1.51,1.94-3.06,3.84-6,7.47-12.52,14.57c-2.64,2.9-3.08,7.78,0,10.6,2.88,2.65,7.79,3.1,10.61,0Z"/><path class="cls-1" d="M363.28,67,386,118.4a7.53,7.53,0,0,0,4.48,3.45,7.67,7.67,0,0,0,5.78-.76,7.59,7.59,0,0,0,3.45-4.48,8.72,8.72,0,0,0-.76-5.78L376.24,59.4A7.49,7.49,0,0,0,371.75,56a7.65,7.65,0,0,0-5.77.76,7.52,7.52,0,0,0-3.45,4.48,8.72,8.72,0,0,0,.75,5.78Z"/></svg>