<svg id="Layer_1" data-name="Layer 1" xmlns="http://www.w3.org/2000/svg" viewBox="0 0 441.04 123.23"><defs><style>.cls-1{fill:#fff;}</style></defs><path class="cls-1" d="M219.11,58.24a348.79,348.79,0,0,0,17.25,36.08,7.55,7.55,0,0,0,13.71-1.79,230.9,230.9,0,0,1,8.5-24.22L246,71.62q5.07,5.76,9.82,11.78L257,84.89l-.31-.4.57.75c.77,1,1.52,2,2.27,3,1.55,2.09,3.06,4.19,4.55,6.32a7.63,7.63,0,0,0,7.47,3.58,7.52,7.52,0,0,0,6.24-5.37l9.12-31.73c1.09-3.77-1.32-8.33-5.23-9.23a7.65,7.65,0,0,0-9.23,5.24l-9.12,31.73L277,87a298.78,298.78,0,0,0-20.4-26,7.44,7.44,0,0,0-7.3-1.93c-2.76.76-4.2,2.73-5.24,5.24a233,233,0,0,0-8.5,24.21l13.71-1.79A331.74,331.74,0,0,1,234.1,55.54l.76,1.79c-.43-1-.86-2-1.28-3.08a8.29,8.29,0,0,0-3.45-4.48,7.49,7.49,0,0,0-10.26,2.69c-.88,1.66-1.51,4-.76,5.78Z"/><path class="cls-1" d="M288.16,14.38q3.25,33.82,4.47,67.81.35,9.68.52,19.34c.08,3.92,3.4,7.69,7.5,7.5s7.58-3.29,7.5-7.5q-.63-34-3.3-67.88-.77-9.64-1.69-19.27A8.14,8.14,0,0,0,301,9.07a7.6,7.6,0,0,0-5.3-2.19c-3.75.16-7.91,3.31-7.5,7.5Z"/><path class="cls-1" d="M305.52,72.31c.53-.46,1.07-.9,1.61-1.35,1.19-1-1.45,1-.19.14.29-.21.57-.42.86-.61a22.5,22.5,0,0,1,3.83-2.15l-1.8.76a16,16,0,0,1,3.54-1l-2,.27a13.34,13.34,0,0,1,3.22,0l-2-.27a10.91,10.91,0,0,1,2.31.6l-1.79-.76c.61.26,1.14.63,1.72.92-1.47-.72-1.08-.9-.43-.3.21.2.4.41.6.62.51.58.24.88-.43-.57.12.26.33.49.47.73a14.81,14.81,0,0,1,.88,1.73l-.75-1.79c1.93,4.62,2.39,9.89,3.05,14.8l-.26-2c.78,6,1.36,11.92,1.94,17.9a8.05,8.05,0,0,0,2.19,5.3,7.66,7.66,0,0,0,5.31,2.2c3.74-.17,7.9-3.32,7.5-7.5-.94-9.78-1.78-19.66-3.7-29.3a25.32,25.32,0,0,0-5.6-12.12c-4.09-4.62-10.38-5.84-16.23-4.9-5.6.89-10.28,4.46-14.47,8.05-3,2.57-2.83,8,0,10.61a7.69,7.69,0,0,0,10.61,0Z"/><path class="cls-1" d="M392.45,47.66a25.8,25.8,0,0,1,4.08-2.26l-1.79.76a19.54,19.54,0,0,1,4.86-1.37l-2,.27a16.39,16.39,0,0,1,3.77,0l-2-.26a13.27,13.27,0,0,1,3.1.83l-1.79-.76a14.51,14.51,0,0,1,1.76.89,7.38,7.38,0,0,0,.74.5c-1.52-.77-1-.85-.42-.28q.33.3.63.63c.86.94-.35-.29-.4-.57a11.51,11.51,0,0,0,1,1.81L403.27,46a10.37,10.37,0,0,1,.66,2.5l-.26-2a12.63,12.63,0,0,1,0,2.46l.27-2a15.35,15.35,0,0,1-1,3.59l.75-1.79a20.89,20.89,0,0,1-2.09,3.68c-.3.42-1.28,1.46.14-.15-.2.22-.37.46-.55.68-.46.56-.93,1.11-1.4,1.66a50.69,50.69,0,0,0-6.25,8.21,30.7,30.7,0,0,0-3.14,20.95c.75,3.86,5.59,6.42,9.23,5.24,4.12-1.33,6-5.09,5.24-9.23q-.12-.61-.21-1.23l.26,2a23.78,23.78,0,0,1,0-6.25l-.26,2a23.94,23.94,0,0,1,1.56-5.62l-.75,1.79a23.5,23.5,0,0,1,1.32-2.6c.22-.37.45-.73.69-1.09s.34-.47.5-.71c.57-.82-.24.26-.39.49A54.15,54.15,0,0,1,411.47,64c3.09-3.71,6.07-7.87,6.87-12.76a17.35,17.35,0,0,0-4.59-15.47,20.16,20.16,0,0,0-13.43-5.78c-5.41-.27-11,1.78-15.44,4.77-3.25,2.18-5,6.7-2.69,10.26,2.09,3.24,6.78,5,10.26,2.69Z"/><path class="cls-1" d="M400.55,108.49c3.93,0,7.68-3.45,7.5-7.5a7.62,7.62,0,0,0-7.5-7.5c-3.92,0-7.68,3.45-7.5,7.5a7.63,7.63,0,0,0,7.5,7.5Z"/><path class="cls-1" d="M426,18.13c-.76,9.2-.77,18.44-.94,27.65l-.54,28c-.08,3.92,3.5,7.68,7.5,7.5a7.65,7.65,0,0,0,7.5-7.5l.54-28c.17-9.21.18-18.45.94-27.65.33-3.92-3.68-7.67-7.5-7.5-4.34.2-7.15,3.31-7.5,7.5Z"/><path class="cls-1" d="M429.43,99.77c3.92,0,7.68-3.45,7.5-7.5a7.62,7.62,0,0,0-7.5-7.5c-3.92,0-7.68,3.45-7.5,7.5a7.63,7.63,0,0,0,7.5,7.5Z"/><path class="cls-1" d="M24.39,64.18c7.07-2,13.77-5.25,21.1-6.26l-2,.27.79-.1a8.17,8.17,0,0,0,5.3-2.19,7.5,7.5,0,0,0,0-10.61c-1.37-1.26-3.37-2.42-5.3-2.2A60.54,60.54,0,0,0,31.44,46c-3.68,1.25-7.3,2.65-11,3.7s-6.49,5.36-5.24,9.22a7.64,7.64,0,0,0,9.23,5.24Z"/><path class="cls-1" d="M192.15,26.41a32.5,32.5,0,0,1,2-7l-.76,1.79A33.21,33.21,0,0,1,197.65,14l-1.17,1.52a32.67,32.67,0,0,1,2.38-2.74,7.78,7.78,0,0,0,2.2-5.3,7.66,7.66,0,0,0-2.2-5.31A7.54,7.54,0,0,0,193.56,0a7.71,7.71,0,0,0-5.31,2.19,39.45,39.45,0,0,0-10.57,20.22,8.07,8.07,0,0,0,.76,5.78,7.49,7.49,0,0,0,10.26,2.69,7.38,7.38,0,0,0,3.45-4.48Z"/><path class="cls-1" d="M166.54,67.53a28.68,28.68,0,0,0,9.2,0,26,26,0,0,0,7.06-2.44,29.2,29.2,0,0,0,11-9.8c6.27-9,6.08-22.51-1.9-30.49s-21.13-8.39-30.62-2.92A26.79,26.79,0,0,0,151,32.23a24.15,24.15,0,0,0-2.35,15.85c1.89,10.66,11.73,20.37,22.86,20.19,3.92-.07,7.68-3.41,7.5-7.5a7.62,7.62,0,0,0-7.5-7.5,13.58,13.58,0,0,1-1.91-.1l2,.27a13.81,13.81,0,0,1-3.34-.93l1.79.76a17.8,17.8,0,0,1-2.79-1.57c-1-.63,1.24,1.08.61.49-.19-.19-.42-.35-.62-.54a15.87,15.87,0,0,1-1.17-1.15c-.49-.52-1.56-2.1-.11,0-.29-.41-.59-.81-.86-1.23a21,21,0,0,1-1.63-3.12l.76,1.79A19.9,19.9,0,0,1,163,43.45l.27,2a16.48,16.48,0,0,1,0-4.21l-.27,2a17,17,0,0,1,1.12-4l-.76,1.79A18,18,0,0,1,165,38c.34-.5,1.16-1.31-.35.41.15-.18.29-.36.44-.53a14.35,14.35,0,0,1,1.32-1.38c.21-.2.42-.4.64-.59s1.12-.9,0-.08.49-.33.8-.53a21.44,21.44,0,0,1,3.25-1.71l-1.79.75A21.55,21.55,0,0,1,174.46,33l-2,.27a20.08,20.08,0,0,1,5,0l-2-.27a19.48,19.48,0,0,1,4.57,1.26l-1.79-.75a16.52,16.52,0,0,1,2.09,1.08c.32.21.63.48,1,.66-1-.78-1.2-.93-.61-.43l.43.4c.28.28.54.58.81.86.51.54-1.11-1.58-.21-.23A16.25,16.25,0,0,1,183,38.15l-.76-1.79a18.49,18.49,0,0,1,1.16,4.27l-.27-2a17.88,17.88,0,0,1,0,4.68l.27-2a19.72,19.72,0,0,1-1.19,4.33l.75-1.79a20.61,20.61,0,0,1-1.79,3.38c-.19.29-.4.57-.6.86-.77,1.12,1.23-1.43.31-.42-.43.48-.85,1-1.3,1.43s-.94.88-1.43,1.3c-1,.83,1.52-1.07.41-.3l-.71.5a21.89,21.89,0,0,1-3.53,1.91l1.79-.75a19.93,19.93,0,0,1-4.66,1.3l2-.27a17.92,17.92,0,0,1-4.51,0l2,.27-.35,0c-2.09-.29-3.88-.36-5.78.75a7.53,7.53,0,0,0-2.69,10.27c1,1.51,2.61,3.18,4.48,3.44Z"/><path class="cls-1" d="M165.13,55.4A25.24,25.24,0,0,0,157.91,72a24.47,24.47,0,0,0,1,8.25,25.63,25.63,0,0,0,4.8,8.88c1.1,1.4,3.6,2.19,5.3,2.19a7.49,7.49,0,0,0,7.5-7.5,8.79,8.79,0,0,0-2.2-5.3l-.19-.25,1.17,1.52a16.91,16.91,0,0,1-2.05-3.54L174,78a18.32,18.32,0,0,1-1.16-4.25l.27,2a19.48,19.48,0,0,1,0-5.06l-.27,2A18.93,18.93,0,0,1,174,68.15l-.76,1.79a17.34,17.34,0,0,1,2.2-3.8l-1.17,1.51A19.1,19.1,0,0,1,175.73,66c2.81-2.75,3-7.88,0-10.61a7.63,7.63,0,0,0-10.6,0Z"/><path class="cls-1" d="M155.3,93.91a21.57,21.57,0,0,0-.06,11.08,24.24,24.24,0,0,0,5.85,9.84,27.24,27.24,0,0,0,15.44,8A30.87,30.87,0,0,0,195.64,120a19.63,19.63,0,0,0,9.76-12c2.31-8.35-.71-18.36-7.49-23.76a22.81,22.81,0,0,0-3.78-2.7,37.58,37.58,0,0,0-4.72-2,38.73,38.73,0,0,0-10.57-2,25.43,25.43,0,0,0-13.58,2.93,21.52,21.52,0,0,0-10,13.41c-1,3.78,1.28,8.32,5.24,9.23a7.65,7.65,0,0,0,9.23-5.24,19.79,19.79,0,0,1,.87-2.56l-.76,1.8a15.42,15.42,0,0,1,1.28-2.37c.86-1.27-1.2,1.38-.34.41.27-.3.54-.61.83-.89s.53-.47.79-.71c.75-.72-1.43,1-.87.67.16-.1.31-.22.47-.33a15.6,15.6,0,0,1,2-1.07l-1.79.76a17,17,0,0,1,4.42-1.17l-2,.27a25.55,25.55,0,0,1,6.42.07l-2-.27a32.16,32.16,0,0,1,7.94,2.13l-1.79-.76a18.75,18.75,0,0,1,1.81.87c.19.11.38.24.58.35a3.46,3.46,0,0,0,.31.22c-.28-.12-2.15-1.67-.9-.67A23.3,23.3,0,0,1,189.7,97c.81.87-1.19-1.75-.36-.45.22.35.44.71.64,1.07.29.54.57,1.1.81,1.67L190,97.48a18.59,18.59,0,0,1,1.22,4.51l-.27-2a16.71,16.71,0,0,1,0,4.18l.27-2a13.48,13.48,0,0,1-.91,3.36l.75-1.79a11,11,0,0,1-.93,1.72,4.43,4.43,0,0,0-.29.42s1.32-1.59.7-.91c-.27.3-.53.6-.82.88s-.56.49-.83.74c-.56.52,1.5-1,.82-.65-.17.1-.33.23-.5.34a16.26,16.26,0,0,1-2.44,1.29l1.79-.75a23.49,23.49,0,0,1-5.8,1.56l2-.27a24.76,24.76,0,0,1-6,0l2,.27a24.06,24.06,0,0,1-5.78-1.53l1.79.75a22.67,22.67,0,0,1-2.82-1.44c-.46-.28-.89-.6-1.33-.9-.72-.48,1.32,1.11.68.52-.23-.2-.46-.38-.68-.58s-.7-.66-1-1-1.38-1.64-.66-.71-.06-.11-.21-.33-.31-.48-.46-.73a16.93,16.93,0,0,1-.92-1.8l.76,1.79a13.2,13.2,0,0,1-.87-3.26l.26,2a14.43,14.43,0,0,1,.05-3.35l-.27,2c.1-.65.23-1.28.39-1.92.95-3.8-1.23-8.31-5.24-9.23S156.32,89.84,155.3,93.91Z"/><path class="cls-1" d="M67.85,45.28c1.48-1.44,3-2.83,4.56-4.17.61-.48.42-.34-.55.42l.66-.48c.33-.24.67-.46,1-.68a19.94,19.94,0,0,1,2.86-1.5l-1.79.76a14.67,14.67,0,0,1,3.12-.9l-2,.27A13.5,13.5,0,0,1,79,39l-2-.27a12.61,12.61,0,0,1,2.84.73l-1.79-.76a10.32,10.32,0,0,1,1.29.64c.18.1.35.25.53.34.58.29-1.43-1.33-.65-.49a6,6,0,0,0,.44.43c.74.66-.66-.69-.57-.79s.72,1.25.78,1.38l-.75-1.79A11.86,11.86,0,0,1,79.84,41l-.27-2c.42,3.69.35,7.48.48,11.19l.41,11.44.81,22.89c.14,3.91,3.35,7.68,7.5,7.5,4-.18,7.65-3.3,7.5-7.5q-.63-18-1.28-36.07c-.1-3-.09-6-.37-9A16.89,16.89,0,0,0,90.32,29c-4.29-4.57-11-5.75-16.9-4.67-6.43,1.18-11.65,6-16.17,10.36-2.82,2.74-3,7.89,0,10.6a7.63,7.63,0,0,0,10.6,0Z"/><path class="cls-1" d="M90.1,57.66c-2.78-6.45-10-10-16.71-10.3-7.4-.35-14,3.89-18,9.94-3.76,5.77-5,14-2.73,20.53,1.42,4,4.06,7.67,8,9.52a19.54,19.54,0,0,0,12.13,1.43c8.46-1.51,14-8.66,18.61-15.23a7.49,7.49,0,0,0-2.69-10.26c-3.85-2-7.83-.74-10.26,2.69-.72,1-1.47,2-2.19,3,1.38-2,0,0-.37.43s-.81.94-1.23,1.39-.86.88-1.31,1.3l-.61.54c-.22.19-1.21,1-.2.18s.16-.14-.06,0-.57.37-.87.54a13.33,13.33,0,0,1-1.6.81l1.8-.75a15.1,15.1,0,0,1-3.36.93l2-.27a13.2,13.2,0,0,1-3.44,0l2,.26a11.17,11.17,0,0,1-2.27-.6l1.79.76a12,12,0,0,1-1.19-.59s-.56-.31-.55-.36,1.62,1.39.61.42c-.17-.16-.32-.35-.49-.52-.58-.57.79,1.29.45.56-.26-.55-.59-1.05-.83-1.61l.75,1.79a15.44,15.44,0,0,1-.82-3.14l.27,2a18.34,18.34,0,0,1,0-4.74l-.27,2a18.92,18.92,0,0,1,1.19-4.44l-.76,1.79a18,18,0,0,1,1.28-2.51c.25-.39.54-.76.79-1.15-1.23,1.93-.63.81-.17.31.27-.29.56-.58.86-.85,1.38-1.26-1.21.76-.17.08a15.92,15.92,0,0,1,2.39-1.32L70.1,63a13.39,13.39,0,0,1,3.06-.8l-2,.27a14,14,0,0,1,3.48,0l-2-.27a13.86,13.86,0,0,1,3.34,1l-1.79-.76a12.4,12.4,0,0,1,1.65.88c.6.38,1,1-.51-.45.23.21.48.39.7.61s.43.44.64.66c.81.86-1.06-1.61-.42-.53a13.68,13.68,0,0,1,.88,1.65c.69,1.6,2.88,3,4.48,3.45a7.67,7.67,0,0,0,5.78-.76,7.59,7.59,0,0,0,3.45-4.48,8.85,8.85,0,0,0-.76-5.78Z"/><path class="cls-1" d="M115.93,73.5a290.07,290.07,0,0,1,0-40.85L103.11,38q3.77,3.7,7.28,7.66c1.16,1.32,2.31,2.66,3.43,4,.56.68,1.12,1.36,1.67,2l.82,1c1,1.26-1.07-1.41-.1-.13a159.89,159.89,0,0,1,11.65,17.63,7.59,7.59,0,0,0,8.47,3.44,7.78,7.78,0,0,0,5.51-7.23q.93-20.45,1.88-40.9a7.56,7.56,0,0,0-7.5-7.5,7.66,7.66,0,0,0-7.5,7.5q-.94,20.46-1.88,40.9l14-3.78a162,162,0,0,0-27.09-35.31,7.53,7.53,0,0,0-8.19-1.55,7.66,7.66,0,0,0-4.62,6.86,290.07,290.07,0,0,0,0,40.85,8,8,0,0,0,2.19,5.3,7.66,7.66,0,0,0,5.31,2.2c3.82-.17,7.79-3.31,7.5-7.5Z"/><path class="cls-1" d="M22.81,21.33a352.33,352.33,0,0,0,2.52,39.09c1.43,11.8,2.92,23.65,4.92,35.37.8,4.73,1.76,9.43,2.66,14.14.74,3.86,5.59,6.42,9.23,5.24,4.12-1.33,6-5.09,5.23-9.22-1-5.27-2.08-10.52-2.94-15.82-1.17-7.28-2.12-14.61-3.1-21.92l.27,2a392.08,392.08,0,0,1-3.79-48.88c0-3.92-3.42-7.68-7.5-7.5a7.63,7.63,0,0,0-7.5,7.5Z"/><path class="cls-1" d="M9.5,35.29A379.76,379.76,0,0,1,69.69,19.55c1.44-.26,2.89-.51,4.34-.73a7.53,7.53,0,0,0,4.48-3.45A7.49,7.49,0,0,0,75.82,5.11,8.73,8.73,0,0,0,70,4.35a358.21,358.21,0,0,0-43.32,9.74Q16,17.12,5.51,20.82A8,8,0,0,0,1,24.27a7.68,7.68,0,0,0-.76,5.78c1.18,3.64,5.27,6.64,9.23,5.24Z"/><path class="cls-1" d="M359.33,56.08a22,22,0,0,0-7.83,2.24,24.38,24.38,0,0,0-5.38,3.86,28.51,28.51,0,0,0-7.4,11.47c-3.31,9.32,1,20,8.44,26.09a22.44,22.44,0,0,0,7.74,4.42,18,18,0,0,0,9.44.11,26.28,26.28,0,0,0,12.17-7.06,27.41,27.41,0,0,0,7-12,22.74,22.74,0,0,0-.39-13.61,25,25,0,0,0-10-12.39,21.88,21.88,0,0,0-15.77-2.87,7.56,7.56,0,0,0-4.48,3.45,7.68,7.68,0,0,0-.76,5.78,7.54,7.54,0,0,0,3.45,4.48,8.48,8.48,0,0,0,5.78.76l.68-.11L360,71a13.9,13.9,0,0,1,3.41,0l-2-.27a15.41,15.41,0,0,1,3.6,1L363.25,71a16.87,16.87,0,0,1,2.58,1.39l.57.4c.71.47-1.33-1.11-.7-.54.39.36.79.69,1.17,1.06s.63.68.94,1c.66.74-.47-.58-.52-.7a3.73,3.73,0,0,0,.41.57,16.54,16.54,0,0,1,1.5,2.74l-.75-1.79a15.64,15.64,0,0,1,1,3.67l-.27-2a17.27,17.27,0,0,1,0,4.31l.27-2a19.51,19.51,0,0,1-1.24,4.5l.75-1.79A20.38,20.38,0,0,1,367.26,85l-.52.75c-.45.67,1.29-1.52.39-.51-.41.46-.8.92-1.23,1.36s-.89.83-1.34,1.23c-.76.67.51-.44.66-.48a3.67,3.67,0,0,0-.75.53,20.13,20.13,0,0,1-3.35,1.83l1.79-.76A16.35,16.35,0,0,1,359,90.05l2-.27a10.94,10.94,0,0,1-2.62,0l2,.27a11.74,11.74,0,0,1-2.62-.75l1.79.75a13,13,0,0,1-1.39-.71c-.23-.14-1.27-.63-1.32-.88,0,.06,1.4,1.16.59.43l-.6-.53c-.44-.41-.86-.83-1.27-1.27l-.54-.61c-.17-.2-.79-1-.05,0s.12.16,0-.06-.31-.44-.46-.67a20.17,20.17,0,0,1-1.65-3l.76,1.79a16.94,16.94,0,0,1-1.19-4.24l.26,2a14.62,14.62,0,0,1,0-3.62l-.27,2a17.33,17.33,0,0,1,1.13-3.93l-.76,1.79a21.48,21.48,0,0,1,1.7-3.17c.22-.33,1.31-1.81.47-.72s-.09.15.11-.08.4-.46.61-.68c.37-.39.76-.77,1.16-1.13.22-.2.46-.39.68-.58.67-.58-1.53,1.08-.53.42a18.73,18.73,0,0,1,3-1.65l-1.79.75a12.66,12.66,0,0,1,2.82-.76l-2,.26.31,0a8.19,8.19,0,0,0,5.31-2.2,7.52,7.52,0,0,0,0-10.61c-1.37-1.25-3.38-2.42-5.31-2.19Z"/></svg>