<svg id="Layer_1" data-name="Layer 1" xmlns="http://www.w3.org/2000/svg" viewBox="0 0 334.4 127.74"><defs><style>.cls-1{fill:#fff;}</style></defs><path class="cls-1" d="M.32,24.56q-.67,28,.08,56.05.21,7.94.54,15.87c.17,3.91,3.34,7.68,7.5,7.5,3.93-.18,7.68-3.3,7.5-7.5q-1.15-28-.89-56c0-5.29.15-10.58.27-15.87a7.56,7.56,0,0,0-7.5-7.5,7.66,7.66,0,0,0-7.5,7.5Z"/><path class="cls-1" d="M11.72,30.35A13.38,13.38,0,0,1,13.39,30l-2,.27a14.61,14.61,0,0,1,3.37,0l-2-.27a21,21,0,0,1,5,1.41l-1.79-.76a36.47,36.47,0,0,1,6.59,3.7c.21.15,1,.77.08,0s-.14-.09.06.07c.47.42.9.86,1.34,1.31.77.78-.3-.52-.38-.55.13,0,.36.52.43.64a11.13,11.13,0,0,1,.8,1.53l-.75-1.79a12.67,12.67,0,0,1,.78,3l-.27-2a14.14,14.14,0,0,1,0,3.44l.27-2a17.57,17.57,0,0,1-1.11,4.09l.75-1.79a18.75,18.75,0,0,1-1.7,3.15c-.35.52-1.17,1.27.31-.36-.16.17-.3.36-.46.54a15.42,15.42,0,0,1-1.39,1.41c-.25.23-.51.44-.77.66-1,.83,1.14-.8.39-.3-.56.37-1.11.76-1.69,1.11a31.59,31.59,0,0,1-3.81,1.92l1.79-.76A64.3,64.3,0,0,1,6.12,50.92c-3.84.83-6.44,5.52-5.24,9.22a7.67,7.67,0,0,0,9.23,5.24c10.12-2.19,21-6,26.41-15.56a23,23,0,0,0,2.66-16.25C37.85,27.46,33.11,23.15,28,20c-6.05-3.68-13.18-6-20.25-4.15C4,16.9,1.25,21.27,2.5,25.11a7.64,7.64,0,0,0,9.22,5.24Z"/><path class="cls-1" d="M6.22,61.57q10.71,20.25,22.56,39.88c2,3.36,6.83,4.9,10.27,2.69a7.63,7.63,0,0,0,2.69-10.26Q29.89,74.26,19.17,54A7.57,7.57,0,0,0,8.91,51.31,7.66,7.66,0,0,0,6.22,61.57Z"/><path class="cls-1" d="M61.21,39a22.27,22.27,0,0,0-7.84,2.25A24,24,0,0,0,48,45.15a28.3,28.3,0,0,0-7.4,11.47c-3.32,9.31,1,20,8.43,26.09a22.53,22.53,0,0,0,7.74,4.42,18,18,0,0,0,9.44.11,26.23,26.23,0,0,0,12.17-7.06,27.41,27.41,0,0,0,7-12A22.66,22.66,0,0,0,85,54.57,24.9,24.9,0,0,0,75,42.18a21.87,21.87,0,0,0-15.77-2.87,7.55,7.55,0,0,0-4.48,3.45A7.49,7.49,0,0,0,57.42,53a8.49,8.49,0,0,0,5.78.76c.23-.05.46-.08.69-.11l-2,.26a14,14,0,0,1,3.42,0l-2-.27a15.6,15.6,0,0,1,3.61,1l-1.79-.75a16.77,16.77,0,0,1,2.57,1.39c.2.13.38.27.57.39.72.48-1.33-1.11-.69-.53.39.35.79.68,1.16,1s.64.68,1,1c.66.73-.48-.58-.52-.7a3.47,3.47,0,0,0,.4.57,16.59,16.59,0,0,1,1.51,2.74l-.76-1.79a15.64,15.64,0,0,1,1,3.67l-.27-2a17.27,17.27,0,0,1,0,4.31l.26-2a19.15,19.15,0,0,1-1.24,4.5l.76-1.8A20.93,20.93,0,0,1,69.13,68c-.17.25-.35.49-.52.75-.45.67,1.29-1.53.39-.51-.4.46-.8.92-1.23,1.35s-.88.84-1.34,1.24c-.75.67.52-.44.66-.49a4.58,4.58,0,0,0-.74.53A19.57,19.57,0,0,1,63,72.69l1.79-.76A16.75,16.75,0,0,1,60.91,73l2-.27a11.39,11.39,0,0,1-2.61,0l2,.27a11.81,11.81,0,0,1-2.61-.75l1.79.75a14.13,14.13,0,0,1-1.4-.71c-.23-.14-1.26-.63-1.31-.88,0,.06,1.39,1.16.58.43l-.59-.53c-.44-.41-.87-.83-1.27-1.27l-.54-.61c-.17-.2-.8-1-.06,0s.12.16,0-.06-.31-.44-.46-.67a20.67,20.67,0,0,1-1.65-3l.76,1.79A17.37,17.37,0,0,1,54.3,63.2l.27,2a14.62,14.62,0,0,1,0-3.62l-.27,2a18.1,18.1,0,0,1,1.13-3.94l-.75,1.79a22.29,22.29,0,0,1,1.69-3.16c.22-.34,1.32-1.81.48-.72s-.1.15.1-.09.41-.45.62-.67c.37-.39.75-.77,1.16-1.13.22-.2.45-.39.68-.58.66-.58-1.54,1.07-.54.42a18.88,18.88,0,0,1,3-1.66l-1.79.76a13,13,0,0,1,2.81-.77l-2,.27.32,0a8.12,8.12,0,0,0,5.3-2.19,7.5,7.5,0,0,0,0-10.61c-1.37-1.25-3.37-2.42-5.3-2.2Z"/><path class="cls-1" d="M100.64,51l.66-.52-.86.66c.33-.27.68-.52,1-.77.68-.5,1.36-1,2.06-1.46a27.87,27.87,0,0,1,4.38-2.42l-1.79.76a16.58,16.58,0,0,1,3.71-1.07l-2,.27a14.31,14.31,0,0,1,3.46,0l-2-.27a12.6,12.6,0,0,1,3,.77l-1.79-.76a11.19,11.19,0,0,1,1.2.6,3.61,3.61,0,0,1,.56.36c0,.06-1.59-1.45-.61-.44.15.15.3.33.47.47.56.5-.91-1.39-.55-.73s.64,1.07.9,1.66l-.75-1.79a22.13,22.13,0,0,1,1.17,5.09l-.27-2c2.1,15.79-1.44,32.05,3.48,47.51,1.19,3.74,5.27,6.52,9.22,5.24,3.75-1.21,6.52-5.22,5.24-9.22a52.55,52.55,0,0,1-1.88-8.42l.27,2c-1.39-10.35-.21-20.79-.78-31.18-.35-6.44-.84-13.25-5.12-18.39-3.48-4.19-9.72-6.12-15-5.49A26.11,26.11,0,0,0,97.9,34.77,67.2,67.2,0,0,0,90,40.42c-1.41,1.1-2.2,3.61-2.2,5.3A7.66,7.66,0,0,0,90,51a7.54,7.54,0,0,0,5.3,2.19A8.8,8.8,0,0,0,100.64,51Z"/><path class="cls-1" d="M122.08,59.84a31.87,31.87,0,0,0-8.51-3.69,27.16,27.16,0,0,0-8.87-1,17.33,17.33,0,0,0-10.77,4.31,16.14,16.14,0,0,0-4.56,8.2,30.25,30.25,0,0,0-.67,8,24.15,24.15,0,0,0,1.16,7.1A16.25,16.25,0,0,0,96,90.94a15.58,15.58,0,0,0,9.64,2.53A20.63,20.63,0,0,0,116,89.78a45.36,45.36,0,0,0,7-6.37c2.65-2.9,3.07-7.79,0-10.61-2.89-2.65-7.78-3.09-10.61,0a42.09,42.09,0,0,1-5,4.77L109,76.4a17.26,17.26,0,0,1-3.7,2.19l1.8-.75a14.17,14.17,0,0,1-3.26.88l2-.27a11.23,11.23,0,0,1-2.39,0l2,.27a10.33,10.33,0,0,1-2.17-.62l1.79.76a9.22,9.22,0,0,1-1.61-.93L105,79.07a8,8,0,0,1-1.42-1.42l1.18,1.52a9.59,9.59,0,0,1-1.1-2l.76,1.79a14.72,14.72,0,0,1-.83-3.34l.27,2a27.15,27.15,0,0,1,0-6.68l-.27,2a14.79,14.79,0,0,1,.85-3.28l-.76,1.79a10.3,10.3,0,0,1,1.13-2L103.64,71a8.35,8.35,0,0,1,1.43-1.42l-1.51,1.17a8.87,8.87,0,0,1,1.56-.89l-1.79.76a11.55,11.55,0,0,1,2.45-.67l-2,.27a18.46,18.46,0,0,1,4.87.05l-2-.26a26,26,0,0,1,6.12,1.68L111,71a27.37,27.37,0,0,1,3.52,1.84,7.57,7.57,0,0,0,10.26-2.69,7.66,7.66,0,0,0-2.69-10.26Z"/><path class="cls-1" d="M161.42,7.51,163,81.35l.45,21c.09,3.92,3.39,7.68,7.5,7.5s7.59-3.3,7.5-7.5l-1.6-73.85-.45-21c-.09-3.92-3.39-7.69-7.5-7.5s-7.59,3.29-7.5,7.5Z"/><path class="cls-1" d="M170.22,48.09a22.88,22.88,0,0,0-6.75-2,24.44,24.44,0,0,0-17.26,4.43,28.9,28.9,0,0,0-8,8.73,45.71,45.71,0,0,0-4,9.15c-2.19,6.8-2.85,14.75.65,21.23a16.43,16.43,0,0,0,9.54,7.7A19.67,19.67,0,0,0,155.67,97,36.81,36.81,0,0,0,166,91.89a51.64,51.64,0,0,0,8.44-7.17c2.65-2.89,3.06-7.79,0-10.61-2.9-2.66-7.77-3.08-10.61,0q-1.25,1.35-2.61,2.58c-.47.42-.94.83-1.42,1.22l-.76.62c-1,.82,1.63-1.22.34-.27A36.72,36.72,0,0,1,152,82.55l1.79-.75a20.53,20.53,0,0,1-4.8,1.35l2-.27a12.3,12.3,0,0,1-3.15,0l2,.27a10.1,10.1,0,0,1-2.14-.57l1.79.76a14.15,14.15,0,0,1-1.49-.79c-.94-.57,1.28,1.15.7.55-.2-.21-.43-.39-.63-.6s-.3-.35-.47-.52c1.47,1.48.93,1.26.53.63a10.84,10.84,0,0,1-.77-1.47l.75,1.79a13.81,13.81,0,0,1-.87-3.34l.27,2a22.49,22.49,0,0,1,.08-5.62l-.26,2a36.56,36.56,0,0,1,2.5-8.82l-.76,1.79a35.1,35.1,0,0,1,1.73-3.54c.29-.52.59-1,.91-1.53s1.66-2.05,0-.19c.46-.53.91-1.07,1.41-1.57.3-.3.6-.58.91-.85.53-.46,1.65-1-.27.17a35,35,0,0,1,4-2.28l-1.79.76a19,19,0,0,1,4.36-1.23l-2,.27a16.62,16.62,0,0,1,4.11,0l-2-.27a15.35,15.35,0,0,1,3.32.88L162,60.76l.64.29a8.12,8.12,0,0,0,5.78.75,7.65,7.65,0,0,0,4.48-3.44c1.74-3.3,1.12-8.52-2.69-10.27Z"/><path class="cls-1" d="M198.34,89.61a113.62,113.62,0,0,0,3.53-34.93L189.06,60l16.12,15.31,2.33,2.21a7.4,7.4,0,0,0,6.3,2.07c2.5-.34,4-1.64,5.48-3.59l12.47-16.33-13.71-1.79a173.94,173.94,0,0,1,7.75,31,7.52,7.52,0,0,0,3.45,4.48,7.49,7.49,0,0,0,10.26-2.69,8.73,8.73,0,0,0,.76-5.78,174,174,0,0,0-7.76-31,7.58,7.58,0,0,0-6.23-5.37,7.11,7.11,0,0,0-3.89.51,8.36,8.36,0,0,0-3.58,3.07L206.33,68.41l11.78-1.51L202,51.59l-2.33-2.21a7.55,7.55,0,0,0-8.19-1.55,7.4,7.4,0,0,0-4.61,6.85,107.53,107.53,0,0,1-.77,20.37l.27-2a109.8,109.8,0,0,1-2.49,12.56c-1,3.8,1.25,8.32,5.24,9.23a7.63,7.63,0,0,0,9.22-5.24Z"/><path class="cls-1" d="M254.16,52.94l10.48-4.52-1.79.75a15,15,0,0,1,3.55-1l-2,.26a12.22,12.22,0,0,1,2.77,0l-2-.27a9.46,9.46,0,0,1,2.08.58L265.48,48c.42.2,1.86,1.18.69.27s.13.21.43.53c.74.79-1-1.47-.59-.75.12.2.26.39.37.59a12.61,12.61,0,0,1,.75,1.52l-.75-1.79a25.62,25.62,0,0,1,1.44,6l-.27-2A206.14,206.14,0,0,1,269,91.68c-.22,3.92,3.61,7.67,7.5,7.5a7.67,7.67,0,0,0,7.5-7.5,211.6,211.6,0,0,0,.15-21.52A163.82,163.82,0,0,0,282,48.61c-1.17-6.44-4.67-12.13-11-14.44a17.39,17.39,0,0,0-11.69.36c-1.44.55-2.85,1.21-4.26,1.82L246.59,40c-1.6.69-3,2.88-3.45,4.48a7.67,7.67,0,0,0,.76,5.78,7.59,7.59,0,0,0,4.48,3.45,8.72,8.72,0,0,0,5.78-.76Z"/><path class="cls-1" d="M280.28,63c-4.13-4.92-11.56-7.62-17.88-7.11a19.57,19.57,0,0,0-10.12,3.41,21.68,21.68,0,0,0-7.57,9.75,19.25,19.25,0,0,0,13.81,25.36,27.88,27.88,0,0,0,9.16.08,23.37,23.37,0,0,0,9.37-3,15.72,15.72,0,0,0,4.65-4.43,13.57,13.57,0,0,0,2-6.39c.23-1.77-1-4.11-2.19-5.31a7.62,7.62,0,0,0-5.31-2.19,7.54,7.54,0,0,0-5.3,2.19,8.82,8.82,0,0,0-2.2,5.31l0,.26.27-2a6.86,6.86,0,0,1-.36,1.25l.76-1.8c-.18.39-1,1.5-.06.33s-.11,0-.38.27c-.47.5,1.49-1,.88-.68-.2.11-.39.25-.58.37a13.89,13.89,0,0,1-1.28.64l1.79-.76a20.13,20.13,0,0,1-5.07,1.31l2-.27a23.15,23.15,0,0,1-5.82.11l2,.27a11.64,11.64,0,0,1-2.65-.76L262,80a12.83,12.83,0,0,1-1.82-1,5.81,5.81,0,0,1-.57-.4l1,.75c-.23,0-.74-.67-.9-.83s-.47-.52-.7-.78c-.52-.58,1.19,1.69.34.4a13.06,13.06,0,0,1-1.06-2L259,78a12.43,12.43,0,0,1-.73-2.67l.26,2a12,12,0,0,1,0-3.17l-.27,2a13.07,13.07,0,0,1,.88-3.06l-.76,1.8a13.11,13.11,0,0,1,1-1.89l.4-.59-.74,1c.12-.32.59-.68.83-.93s.5-.5.77-.73c1.17-1-1.05.71-.39.3a18.82,18.82,0,0,1,2-1.13l-1.79.76a12.83,12.83,0,0,1,3.21-.87l-2,.26a16.55,16.55,0,0,1,4.1.05l-2-.27a18.11,18.11,0,0,1,4,1.11l-1.79-.75a18.51,18.51,0,0,1,2.7,1.46c.88.57-.74-.56-.72-.57s.45.38.5.43a13.84,13.84,0,0,1,1.12,1.18,7.53,7.53,0,0,0,5.3,2.2,7.66,7.66,0,0,0,5.31-2.2,7.54,7.54,0,0,0,2.19-5.3,8.4,8.4,0,0,0-2.19-5.3Z"/><path class="cls-1" d="M290,41.83c0,13.16.16,26.33.39,39.49.2,11.25.4,22.51.85,33.75.06,1.42.11,2.85.22,4.26a15.87,15.87,0,0,0,.37,2.86,7.7,7.7,0,0,0,2,3.41c3,3,7.54,2.65,10.62,0s2.83-8,0-10.6a7.68,7.68,0,0,0-10.61,0h0l3.31-1.93h0l5.78.76q3.44,4.41,2.67,2.66l.76,1.79a1,1,0,0,1-.05-.24l.27,2c-.3-2.3-.28-4.68-.36-7q-.26-7-.41-14-.47-18.81-.66-37.62c-.07-6.51-.12-13-.1-19.53,0-3.92-3.46-7.68-7.5-7.5a7.63,7.63,0,0,0-7.5,7.5Z"/><path class="cls-1" d="M307.82,56.33c-.22.17-1.63,1.11-.61.52.23-.13.44-.29.67-.42a15.57,15.57,0,0,1,1.42-.7l-1.79.76a15.44,15.44,0,0,1,3.65-1l-2,.27a17.29,17.29,0,0,1,4.13,0l-2-.27a17.36,17.36,0,0,1,4.3,1.18l-1.79-.76A17.08,17.08,0,0,1,316,57.1c.54.35,1.2,1.09-.49-.43.31.28.64.53.95.83s.58.6.87.91c.81.88-1.07-1.59-.39-.51a22.18,22.18,0,0,1,1.5,2.75l-.75-1.79a24.83,24.83,0,0,1,1.54,5.86l-.27-2a43.09,43.09,0,0,1,.28,10.88l.27-2a19.05,19.05,0,0,1-1.19,4.44l.76-1.8a17.25,17.25,0,0,1-1.35,2.55c-.38.58-1.08,1.1.4-.45-.29.3-.54.64-.84.94s-.84.6-.89.81c.06-.26,1.75-1.25.57-.47a12.45,12.45,0,0,1-2,1.08l1.79-.75a16.64,16.64,0,0,1-3.92,1l2-.27a32.55,32.55,0,0,1-8.19-.2l2,.26c-1.1-.15-2.2-.33-3.3-.52a8.12,8.12,0,0,0-5.78.76,7.66,7.66,0,0,0-3.45,4.48c-.83,3.64,1.11,8.52,5.24,9.23,5.71,1,11.48,1.77,17.21.41,7-1.67,12-6.93,14.45-13.53A30,30,0,0,0,334.41,68a46.76,46.76,0,0,0-1.31-10.47,23.66,23.66,0,0,0-5.55-10.2,22.56,22.56,0,0,0-8.85-5.5,23.27,23.27,0,0,0-15.18.18,24.66,24.66,0,0,0-6.3,3.7c-1.41,1.1-2.2,3.62-2.2,5.31a7.63,7.63,0,0,0,2.2,5.3,7.55,7.55,0,0,0,5.3,2.2,8.85,8.85,0,0,0,5.3-2.2Z"/></svg>