<svg id="Layer_1" data-name="Layer 1" xmlns="http://www.w3.org/2000/svg" viewBox="0 0 944.73 144.72"><defs><style>.cls-1{fill:#fff;}</style></defs><path class="cls-1" d="M22.48,33.48c.79,20.21,1.66,40.42,2.44,60.63.16,3.92,3.34,7.69,7.5,7.5,3.94-.17,7.67-3.3,7.5-7.5-.78-20.21-1.65-40.42-2.44-60.63-.15-3.91-3.34-7.68-7.5-7.5-3.93.18-7.66,3.3-7.5,7.5Z"/><path class="cls-1" d="M7.51,39.08q24.54.69,49.05-1a8,8,0,0,0,5.31-2.2,7.58,7.58,0,0,0,2.19-5.3c-.17-3.84-3.3-7.79-7.5-7.5q-24.5,1.66-49.05,1A7.56,7.56,0,0,0,0,31.58a7.64,7.64,0,0,0,7.5,7.5Z"/><path class="cls-1" d="M68.34,16.21Q67,47.56,67.47,78.94q.15,9,.45,17.93c.13,3.91,3.36,7.68,7.5,7.5,4-.18,7.64-3.3,7.5-7.5q-1-31.37-.22-62.74.24-9,.64-17.92a7.55,7.55,0,0,0-7.5-7.5,7.65,7.65,0,0,0-7.5,7.5Z"/><path class="cls-1" d="M82.79,74l.12-.31-.75,1.79a11.49,11.49,0,0,1,.9-1.56c.38-.57,2-2.56.21-.37,1-1.21,2-2.41,3-3.55a28,28,0,0,1,2.9-2.65c1.12-.92-1.34,1-.24.18.44-.31.87-.63,1.33-.93A17.34,17.34,0,0,1,93.12,65l-1.8.75A13.82,13.82,0,0,1,94.05,65l-2,.27a10.69,10.69,0,0,1,2.19,0l-2-.27a8.77,8.77,0,0,1,2.13.6l-1.79-.76a7.1,7.1,0,0,0,.93.52c-1-.86-1.29-1-.73-.56a3.51,3.51,0,0,1,.33.34c.52.38-1-1.76-.42-.52.16.32.34.63.49,1l-.76-1.79a12.48,12.48,0,0,1,.7,2.75l-.27-2c.32,2.54.26,5.14.33,7.7l.24,9.47.49,19c.1,3.92,3.38,7.68,7.5,7.5s7.61-3.3,7.5-7.5L108.45,82l-.24-9.22c-.07-2.62,0-5.28-.3-7.88-.42-3.75-1.36-7.05-3.86-10a14.38,14.38,0,0,0-10.24-4.66C87.43,50,81.41,53.85,77,58.07a43.21,43.21,0,0,0-4,4.45A26.29,26.29,0,0,0,68.33,70a7.58,7.58,0,0,0,.75,5.78,7.66,7.66,0,0,0,4.48,3.45c4.25,1,7.78-1.29,9.23-5.24Z"/><path class="cls-1" d="M121.49,78.13a79.92,79.92,0,0,0,15.84-.7c2.38-.33,4.74-.78,7.08-1.32,3.63-.85,7.37-1.7,9.49-5.12,2-3.19,1.19-7.22.64-10.68a28.81,28.81,0,0,0-2.37-7.44,21.17,21.17,0,0,0-9.08-9.5,19.79,19.79,0,0,0-16.68-.75c-5.6,2.36-9.08,7.42-11.33,12.86-3.59,8.71-2.72,18.62,1.15,27.05a29.66,29.66,0,0,0,10.56,12.16c5.67,3.77,14.22,4.82,19.93.48a8.19,8.19,0,0,0,3.44-4.48,7.68,7.68,0,0,0-.75-5.78,7.56,7.56,0,0,0-4.49-3.44c-1.83-.42-4.21-.44-5.77.75a10.22,10.22,0,0,1-1.67,1l1.79-.76a10.1,10.1,0,0,1-2.65.72l2-.27a11.83,11.83,0,0,1-2.38,0l2,.27a12.93,12.93,0,0,1-3.13-.84l1.79.76a15.93,15.93,0,0,1-1.84-.94c-.36-.21-.7-.44-1.05-.67-.86-.57.34.35.52.42A6.14,6.14,0,0,1,133,80.59c-.46-.44-.9-.92-1.33-1.4a4.23,4.23,0,0,0-.56-.68c.25.18,1.15,1.55.43.54-.35-.47-.67-1-1-1.46a26.73,26.73,0,0,1-1.69-3.28l.76,1.79a27.84,27.84,0,0,1-1.87-6.78l.27,2a28.2,28.2,0,0,1,0-7.4l-.26,2a26.19,26.19,0,0,1,1.77-6.44l-.76,1.79c.33-.76.69-1.5,1.09-2.22.18-.31.36-.61.55-.91s.27-.41.42-.61c-.76.95-.95,1.2-.58.76.57-.66,1.16-1.25,1.79-1.85,1-1-1.4.87-.28.23.44-.25.85-.5,1.31-.71l-1.79.75a12.49,12.49,0,0,1,2.77-.69l-2,.26a14.86,14.86,0,0,1,3.77,0l-2-.27a12.49,12.49,0,0,1,2.69.75L134.75,56A11.81,11.81,0,0,1,136.69,57a4.15,4.15,0,0,0,.43.3s-1.6-1.3-.91-.7l.84.72c.32.29.63.58.92.9s.32.37.49.56c.57.63-.93-1.37-.51-.64A26.64,26.64,0,0,1,139.44,61l-.75-1.8a25.48,25.48,0,0,1,1.5,5.89l-.27-2a19.73,19.73,0,0,1,.25,3.43l.27-2-.08.37.75-1.79c2.29-1.77,2.87-2.36,1.75-1.79l1.79-.76A58.71,58.71,0,0,1,133.14,63l2-.27a72.3,72.3,0,0,1-13.64.41c-3.92-.24-7.67,3.62-7.5,7.5a7.69,7.69,0,0,0,7.5,7.5Z"/><path class="cls-1" d="M196.58,95.82q1.63-26.8,2.35-53.64.21-7.71.33-15.41l-7.5,7.5q15.9-.42,31.78.56c3.92.24,7.67-3.63,7.5-7.5a7.68,7.68,0,0,0-7.5-7.5q-15.87-1-31.78-.56a7.63,7.63,0,0,0-7.5,7.5q-.45,26.83-1.81,53.66c-.27,5.13-.55,10.26-.87,15.39-.24,3.92,3.62,7.67,7.5,7.5a7.67,7.67,0,0,0,7.5-7.5Z"/><path class="cls-1" d="M191.92,68.8q11.73-.48,23.48-.17a7.57,7.57,0,0,0,7.5-7.5,7.66,7.66,0,0,0-7.5-7.5q-11.75-.32-23.48.17c-3.92.17-7.69,3.34-7.5,7.5.17,3.93,3.3,7.68,7.5,7.5Z"/><path class="cls-1" d="M237.09,42.69c-4.64,2.88-7.53,7.73-8.93,12.91A31.15,31.15,0,0,0,227.1,63a22.31,22.31,0,0,0,2,9.59c1.81,4.12,5.13,8.25,9.26,10.24a25.63,25.63,0,0,0,8.75,2.25,23.49,23.49,0,0,0,18.4-5.74c7.78-7.24,8.12-20,3.29-28.91-5.94-10.95-21.34-13.73-31.74-7.71-3.4,2-4.88,6.86-2.69,10.26a7.65,7.65,0,0,0,10.26,2.69,12,12,0,0,1,1.48-.73l-1.79.75a19.61,19.61,0,0,1,4.59-1.18l-2,.27a20.28,20.28,0,0,1,4.8,0l-2-.27a17,17,0,0,1,4.2,1.13l-1.79-.75a15.3,15.3,0,0,1,2,1.06l.64.44-.88-.68a5.53,5.53,0,0,1,1.1,1c.21.22,1.2,1.42.34.31s0,0,.12.26a20.88,20.88,0,0,1,1.26,2.5L256,58a19.57,19.57,0,0,1,1.22,4.62l-.26-2a19.57,19.57,0,0,1,0,4.59l.27-2a18.37,18.37,0,0,1-1.23,4.61L256.7,66a15.87,15.87,0,0,1-1.24,2.25c-.81,1.25,1.23-1.41.36-.47-.26.29-.52.58-.8.85s-.53.44-.78.67c1.84-1.74,1.13-.84.43-.39a14.4,14.4,0,0,1-1.95,1l1.79-.75a17.22,17.22,0,0,1-4.17,1.1l2-.26a22.34,22.34,0,0,1-5.66,0l2,.27a17.05,17.05,0,0,1-4.27-1.08l1.79.76a7,7,0,0,1-.78-.38c-.36-.21-.68-.5-1-.69,1,.8,1.22.95.64.46l-.55-.52c-.36-.34-.65-.79-1-1.11.78,1,.94,1.24.49.62a6.9,6.9,0,0,1-.42-.63A19.39,19.39,0,0,1,242.08,65l.76,1.8a13.93,13.93,0,0,1-.89-3.35l.26,2a21,21,0,0,1,.1-5l-.27,2a22.74,22.74,0,0,1,1.55-5.66l-.76,1.79c.23-.51.47-1,.75-1.51.16-.29.33-.58.51-.85s.81-1.12,0,0,.28-.27.56-.53c.08-.08.56-.4.57-.51,0,.24-1.78,1.25-.53.48,3.33-2.07,4.92-6.79,2.69-10.26S240.65,40.47,237.09,42.69Z"/><path class="cls-1" d="M277,52.72a103.17,103.17,0,0,0,0,14.71c.39,5.21.77,11,4,15.4a16.2,16.2,0,0,0,7.81,6.09,16.59,16.59,0,0,0,9,.21c5.39-1.25,9.54-5.44,13.72-8.79a7.51,7.51,0,0,0,2.2-5.3,7.66,7.66,0,0,0-2.2-5.31,7.55,7.55,0,0,0-5.3-2.19A8.66,8.66,0,0,0,301,69.73l-4.24,3.4-1,.77c-.79.64,1.42-1,.32-.27A18.15,18.15,0,0,1,294,74.8l1.79-.76a12.22,12.22,0,0,1-2.65.78l2-.27a11.65,11.65,0,0,1-2.83,0l2,.26a7.91,7.91,0,0,1-1.43-.37l1.79.75a12.53,12.53,0,0,0-1.3-.69c1,.81,1.22,1,.63.48-.19-.17-.36-.35-.54-.53-.5-.58-.35-.36.45.64q-.21-.3-.42-.63a12.35,12.35,0,0,1-.74-1.45l.76,1.79a20.44,20.44,0,0,1-1.19-4.69l.27,2a96.88,96.88,0,0,1-.5-19.41c.27-3.92-3.64-7.67-7.5-7.5a7.68,7.68,0,0,0-7.5,7.5Z"/><path class="cls-1" d="M301.09,50q-.82,18.24-.58,36.5c.06,3.93,3.42,7.69,7.5,7.5a7.61,7.61,0,0,0,7.5-7.5q-.24-18.25.58-36.5a7.57,7.57,0,0,0-7.5-7.5,7.66,7.66,0,0,0-7.5,7.5Z"/><path class="cls-1" d="M337.57,90.86q-.06-17.19-1.6-34.31l-12.8,5.3c4.78,4.2,9.62,8.35,14.31,12.64,2.15,2,4.26,4,6.27,6.1,1,1.08,2,2.18,3,3.32.48.57.95,1.15,1.42,1.73s-1-1.35-.22-.28l.79,1.08c1.9,2.63,5.12,4.53,8.47,3.45a7.8,7.8,0,0,0,5.51-7.23q.87-16.05.42-32.12c-.1-3.92-3.37-7.69-7.5-7.5-4,.18-7.61,3.3-7.5,7.5q.45,16.07-.42,32.12l14-3.79c-7.72-10.7-18.06-19-27.9-27.63a7.64,7.64,0,0,0-8.2-1.55c-2.54,1.08-4.87,3.92-4.61,6.86q1.54,17.11,1.6,34.31c0,3.92,3.44,7.68,7.5,7.5a7.63,7.63,0,0,0,7.5-7.5Z"/><path class="cls-1" d="M395.22,7.51,398,80.24l.78,20.43c.15,3.91,3.34,7.69,7.5,7.5,3.93-.18,7.66-3.3,7.5-7.5L411,27.93l-.78-20.42c-.15-3.92-3.34-7.69-7.5-7.5-3.93.17-7.66,3.3-7.5,7.5Z"/><path class="cls-1" d="M403.84,44.92c-12.56-3.58-27.71,2.93-33.1,15a36.81,36.81,0,0,0-3,12.71c-.27,3.88-.48,8.23.83,11.94,2.63,7.49,10.24,11.9,18,11.65,8.71-.27,15.64-5.84,21.44-11.83,2.73-2.82,3-7.83,0-10.6a7.63,7.63,0,0,0-10.61,0,60.2,60.2,0,0,1-4.92,4.66c-.2.16-1,.79,0,0s.15-.13-.06,0c-.44.32-.89.63-1.34.92a21.86,21.86,0,0,1-3,1.59l1.79-.75a16.07,16.07,0,0,1-3.9,1.1l2-.27a14.78,14.78,0,0,1-3.64,0l2,.27a15,15,0,0,1-3.17-.85l1.79.75a12.82,12.82,0,0,1-1.44-.71s-.81-.52-.8-.53,1.59,1.46.66.48c-.17-.19-.37-.37-.55-.55-.82-.78.91,1.38.48.66a15.1,15.1,0,0,1-.85-1.52l.75,1.79a11.53,11.53,0,0,1-.66-2.5l.26,2A41.63,41.63,0,0,1,383.06,70l-.27,2a25.62,25.62,0,0,1,1.53-5.9l-.76,1.79a20.46,20.46,0,0,1,1.84-3.38c.18-.26,1-1.31.11-.19s-.16.22.05,0c.43-.51.9-1,1.38-1.46s.92-.82,1.39-1.21c.67-.57-1.55,1.12-.58.45.28-.18.55-.38.83-.57a24,24,0,0,1,3.58-1.89l-1.79.76a22.75,22.75,0,0,1,5.5-1.5l-2,.27a20.83,20.83,0,0,1,5.35,0l-2-.27a19.55,19.55,0,0,1,2.63.57c3.77,1.07,8.34-1.31,9.23-5.24a7.65,7.65,0,0,0-5.24-9.23Z"/><path class="cls-1" d="M420.3,49.45a395.06,395.06,0,0,0,1.84,49.61,8.13,8.13,0,0,0,2.2,5.3,7.63,7.63,0,0,0,5.3,2.2c3.73-.17,7.92-3.32,7.5-7.5a395.06,395.06,0,0,1-1.84-49.61,7.5,7.5,0,1,0-15,0Z"/><path class="cls-1" d="M426.53,35.71c3.92,0,7.68-3.45,7.5-7.5a7.64,7.64,0,0,0-7.5-7.5c-3.93,0-7.69,3.45-7.5,7.5a7.63,7.63,0,0,0,7.5,7.5Z"/><path class="cls-1" d="M461.72,90.82l-3.38-34.88-12.8,5.3L474.19,87.8a7.57,7.57,0,0,0,8.19,1.55A7.48,7.48,0,0,0,487,82.5l-.67-33c-.08-3.92-3.4-7.68-7.5-7.5s-7.59,3.3-7.5,7.5L472,82.5l12.8-5.31L456.14,50.63A7.59,7.59,0,0,0,448,49.08c-2.52,1.07-4.89,3.93-4.61,6.86l3.38,34.88a8.14,8.14,0,0,0,2.2,5.31,7.6,7.6,0,0,0,5.3,2.19c3.74-.16,7.91-3.32,7.5-7.5Z"/><path class="cls-1" d="M521,34.35a64.43,64.43,0,0,0-11.36,1.24A24.52,24.52,0,0,0,491,58.74a24.19,24.19,0,0,0,6,15.32,22.15,22.15,0,0,0,14.79,7.55c5.89.65,12.22-1.22,17.33-4.09a20,20,0,0,0,9.74-13.82,44.48,44.48,0,0,0,.81-8.14,24.36,24.36,0,0,0-1.16-8.35,18.88,18.88,0,0,0-7.1-9.31,19.57,19.57,0,0,0-8.65-3.31,37.59,37.59,0,0,0-11.91.74c-3.87.73-6.42,5.59-5.24,9.23,1.34,4.13,5.09,6,9.23,5.24.75-.15,1.51-.26,2.26-.36l-2,.26a25.62,25.62,0,0,1,6.66-.25l-2-.27a15.43,15.43,0,0,1,3.39,1l-1.79-.76a13.55,13.55,0,0,1,1.69.88c.26.16,1.2.86.17.05s-.06,0,.11.13.35.35.53.52c1,.91-.73-1.14-.34-.49a16.76,16.76,0,0,1,1.06,1.9l-.76-1.79a15.35,15.35,0,0,1,.91,3.46l-.27-2a32.71,32.71,0,0,1-.12,8.27l.26-2a21,21,0,0,1-1.2,4.75l.75-1.79a12.91,12.91,0,0,1-1.1,2.12c-.91,1.4,1.13-1.14.17-.2-.28.27-.55.55-.82.82-1,1,1.44-.88.21-.17-.36.21-.7.45-1.07.65a25.35,25.35,0,0,1-2.68,1.28l1.8-.76a26.34,26.34,0,0,1-6.46,1.77l2-.26a19.8,19.8,0,0,1-4.42,0l2,.27a16.47,16.47,0,0,1-3.66-1l1.8.75a15.37,15.37,0,0,1-2.46-1.33c-.16-.1-.39-.35-.57-.4.12,0,1.43,1.19.69.52-.4-.35-.79-.7-1.15-1.08s-.63-.7-.94-1.05c-.57-.65,1,1.4.53.68l-.4-.59a16.68,16.68,0,0,1-1.4-2.64l.75,1.79a17.31,17.31,0,0,1-1.1-4.06l.27,2a15.58,15.58,0,0,1,0-3.86l-.27,2a16.4,16.4,0,0,1,1-3.7l-.76,1.79a18.15,18.15,0,0,1,1.48-2.79c.13-.19.27-.38.4-.58.69-1-1,1.21-.41.55.35-.4.69-.8,1.07-1.18s.68-.64,1-1c1-.9-1.2.85-.55.4.2-.13.38-.28.58-.41a18.51,18.51,0,0,1,2.93-1.6l-1.79.76a19.49,19.49,0,0,1,4.82-1.22l-2,.27c2.4-.32,4.82-.51,7.24-.61,3.91-.15,7.69-3.33,7.5-7.5-.18-3.92-3.3-7.67-7.5-7.5Z"/><path class="cls-1" d="M533.73,41.15c.27-.79.57-1.57.89-2.34l-.76,1.79a35.32,35.32,0,0,1,4.54-7.73l-1.17,1.52A34.75,34.75,0,0,1,542.44,29a7.56,7.56,0,0,0,2.19-5.3,7.65,7.65,0,0,0-2.19-5.31,7.56,7.56,0,0,0-5.31-2.19l-2,.26a7.55,7.55,0,0,0-3.31,1.93,41.8,41.8,0,0,0-12.56,18.74,7.5,7.5,0,0,0,11,8.47,8.23,8.23,0,0,0,3.44-4.48Z"/><path class="cls-1" d="M506,71.21c-7.79,7.1-11,19.48-7.15,29.39a8.16,8.16,0,0,0,3.45,4.48,7.68,7.68,0,0,0,5.78.76,7.6,7.6,0,0,0,4.48-3.45,7.34,7.34,0,0,0,.76-5.78,19.26,19.26,0,0,1-1.13-4.34l.27,2a21.08,21.08,0,0,1,0-5.44l-.27,2a22.23,22.23,0,0,1,1.41-5.26l-.75,1.79a21.08,21.08,0,0,1,2.54-4.45l-1.17,1.52a19.6,19.6,0,0,1,2.39-2.6,7.55,7.55,0,0,0,0-10.6,7.66,7.66,0,0,0-10.61,0Z"/><path class="cls-1" d="M524.58,99.39a24.52,24.52,0,0,0-27.05,1.71c-7.79,6-11.68,16.94-8.27,26.44a25.63,25.63,0,0,0,9.26,12.26c4.35,3.18,9.66,4,14.87,4.66s10.84.12,15.31-2.8a22.17,22.17,0,0,0,9-12.15c3.55-11.55-3.3-24.12-13.15-30.12a7.5,7.5,0,0,0-7.57,13,8.12,8.12,0,0,0,1.47,1c-.94-.74-1.11-.87-.51-.38l.65.56a24.4,24.4,0,0,1,2.18,2.25c1.15,1.34-.84-1.26,0-.08.3.44.62.89.91,1.35a23.84,23.84,0,0,1,1.5,2.88l-.76-1.79a20.27,20.27,0,0,1,1.33,4.65l-.27-2a17.68,17.68,0,0,1,.06,4.3l.26-2a15.82,15.82,0,0,1-1,3.83l.76-1.79a17.6,17.6,0,0,1-1.16,2.24c-.19.3-.41.59-.61.89,1.26-1.93.59-.77.14-.29-.28.31-.59.58-.89.87-.9.88,1.53-1,.4-.29a15.89,15.89,0,0,1-2.18,1.2L521,129a14.76,14.76,0,0,1-3.35.88l2-.27a28.76,28.76,0,0,1-7.18-.21l2,.26a28.88,28.88,0,0,1-6.87-1.62l1.79.75a17.07,17.07,0,0,1-2.57-1.37c-.1-.07-.5-.43-.6-.42.1,0,1.44,1.19.65.51-.41-.36-.82-.72-1.21-1.11s-.65-.73-1-1.08c-.59-.63,1,1.38.5.66-.13-.21-.28-.4-.42-.6a17.86,17.86,0,0,1-1.47-2.72l.75,1.79a17.24,17.24,0,0,1-1.09-3.93l.27,2a17.92,17.92,0,0,1,0-4.57l-.27,2a18.45,18.45,0,0,1,1.24-4.41l-.76,1.8a17.85,17.85,0,0,1,1.47-2.68s.45-.62.44-.62-1.21,1.41-.45.62c.33-.34.63-.69,1-1s.72-.64,1.08-1c.66-.57-1.39,1-.66.52l.6-.4a17.75,17.75,0,0,1,2.66-1.4l-1.79.75a18.77,18.77,0,0,1,4.41-1.17l-2,.27a18.31,18.31,0,0,1,4.56,0l-2-.26a17.58,17.58,0,0,1,4.1,1.14l-1.79-.76a19.81,19.81,0,0,1,2,1c3.4,2,8.36.9,10.26-2.69A7.63,7.63,0,0,0,524.58,99.39Z"/><path class="cls-1" d="M567.06,35.29Q567.57,67.16,566,99a7.55,7.55,0,0,0,7.5,7.5A7.67,7.67,0,0,0,581,99q1.57-31.84,1.07-63.73c-.06-3.93-3.41-7.69-7.5-7.5a7.61,7.61,0,0,0-7.5,7.5Z"/><path class="cls-1" d="M574.72,41.69h22.43c3.92,0,7.68-3.45,7.5-7.5a7.63,7.63,0,0,0-7.5-7.5H574.72c-3.92,0-7.68,3.45-7.5,7.5a7.63,7.63,0,0,0,7.5,7.5Z"/><path class="cls-1" d="M572.85,72.27a66.23,66.23,0,0,0,11.25.87,66.13,66.13,0,0,0,11.22-1.27,7.5,7.5,0,0,0,1.79-13.7,8.33,8.33,0,0,0-5.78-.76c-1.05.2-2.11.38-3.17.52l2-.26a55.26,55.26,0,0,1-14.25,0l2,.27-1.07-.15a8.2,8.2,0,0,0-5.77.75,7.5,7.5,0,0,0-2.7,10.26c1,1.53,2.61,3.17,4.49,3.45Z"/><path class="cls-1" d="M618.8,51a52.5,52.5,0,0,1,3.93-4.61c.34-.35.7-.68,1.06-1l.63-.54c-.92.7-1.15.88-.69.55a17.24,17.24,0,0,1,2.64-1.5l-1.79.75a13.24,13.24,0,0,1,3.09-.85l-2,.27a11,11,0,0,1,2.37,0l-2-.26a9.56,9.56,0,0,1,1.91.49l-1.79-.76c.28.12,1.53.56,1.59.85,0-.15-1.55-1.31-.54-.39.23.2.43.42.64.64.71.7-.45-.51-.47-.68,0,.18.4.58.51.76a14.37,14.37,0,0,1,.94,1.78l-.76-1.79a21,21,0,0,1,1.34,5.12l-.27-2c.94,7.06,1.18,14.26,1.72,21.35l1.66,21.66a8,8,0,0,0,2.2,5.31,7.58,7.58,0,0,0,5.3,2.19c3.81-.17,7.82-3.31,7.5-7.5l-2.64-34.45c-.48-6.26-.54-12.79-3.57-18.45a17.61,17.61,0,0,0-6.6-6.88,16.59,16.59,0,0,0-11-1.71c-6.67,1-11.53,6-15.49,11.05a8.18,8.18,0,0,0-2.2,5.3A7.66,7.66,0,0,0,608.2,51a7.54,7.54,0,0,0,5.3,2.19c1.85-.08,4.1-.67,5.3-2.19Z"/><path class="cls-1" d="M638.58,56.93a25.24,25.24,0,0,0-19.07-4.77,18.49,18.49,0,0,0-14.42,12.68A25.89,25.89,0,0,0,607,83.64a16.36,16.36,0,0,0,6.43,6.66c3.85,2.09,8,2.35,12.25,1.72a27.81,27.81,0,0,0,16.84-9.63,8.09,8.09,0,0,0,2.2-5.31,7.63,7.63,0,0,0-2.2-5.3c-2.75-2.53-7.95-3.24-10.61,0a20.73,20.73,0,0,1-1.73,1.9c-.33.32-.68.63-1,.93s-1.56.94.27-.19A32.78,32.78,0,0,1,625,76.94l1.79-.76a21,21,0,0,1-5,1.37l2-.27a14.83,14.83,0,0,1-3.33,0l2,.26A10.91,10.91,0,0,1,620,77l1.8.75a13.36,13.36,0,0,1-1.49-.81c-.73-.45,1.37,1.27.57.41-.19-.2-.39-.42-.59-.61-.59-.55,1,1.4.53.71-.16-.24-.33-.48-.48-.72a15.52,15.52,0,0,1-.79-1.58l.76,1.8a18.68,18.68,0,0,1-1.17-4.52l.27,2a22.57,22.57,0,0,1,0-5.26l-.26,2a14.29,14.29,0,0,1,.84-3.27l-.75,1.8a14.31,14.31,0,0,1,1-1.77c.62-1-1,1.11-.38.52.22-.22.42-.45.64-.66s.38-.31.55-.48c-1.43,1.38-1,.77-.47.43a11.83,11.83,0,0,1,1.8-.94l-1.79.75a14.36,14.36,0,0,1,3.22-.88l-2,.26a15.74,15.74,0,0,1,3.94,0l-2-.27a18.94,18.94,0,0,1,4.42,1.27l-1.79-.76A25.53,25.53,0,0,1,631,69.88a7.56,7.56,0,0,0,5.77.76,7.69,7.69,0,0,0,4.49-3.45,7.54,7.54,0,0,0,.75-5.78,8.59,8.59,0,0,0-3.44-4.48Z"/><path class="cls-1" d="M668.5,89.21l-2-36.34-12.81,5.3c2.7,2.38,5.34,4.83,7.8,7.45q1.77,1.88,3.41,3.88c.16.2,1.17,1.49.38.47s.21.29.36.5c.53.73,1,1.47,1.56,2.21A39.82,39.82,0,0,0,675,81.2a91.46,91.46,0,0,0,9.68,6.51c5,3,11.06-.91,11.28-6.48a243.71,243.71,0,0,0-1-34,8.14,8.14,0,0,0-2.2-5.31,7.6,7.6,0,0,0-5.3-2.19c-3.73.16-7.93,3.32-7.5,7.5a243.71,243.71,0,0,1,1,34l11.29-6.48c-1.46-.87-2.92-1.74-4.34-2.66-.66-.42-1.31-.85-1.94-1.29l-1-.74c-1-.7-.11,0,.35.28a21.16,21.16,0,0,1-3.71-3.43c-.29-.32-.56-.65-.84-1-.87-1,.74,1,.21.27s-1.06-1.46-1.58-2.2a95.06,95.06,0,0,0-15.07-16.43A7.59,7.59,0,0,0,656.13,46a7.41,7.41,0,0,0-4.61,6.85l2,36.34c.21,3.91,3.29,7.69,7.5,7.5,3.88-.17,7.73-3.3,7.5-7.5Z"/><path class="cls-1" d="M733.52,35.81c-6-1-11.92-1.57-18-.52a23.21,23.21,0,0,0-14.76,9.38c-3.44,4.86-3.95,11.38-3.25,17.12a25.16,25.16,0,0,0,2.84,9.77,18.68,18.68,0,0,0,6.82,6.74c10,5.71,22.8,2.89,30.93-4.68a25.05,25.05,0,0,0,7.52-13.28c1.07-5.65.8-12.05-2.52-17-6.63-9.82-19.23-10.23-29.68-7.59A7.57,7.57,0,0,0,708.22,45a7.65,7.65,0,0,0,9.23,5.24,44.31,44.31,0,0,1,4.59-.9l-2,.27a29.24,29.24,0,0,1,7.3-.1l-2-.26a17.66,17.66,0,0,1,4.4,1.17L728,49.67a14.13,14.13,0,0,1,1.72.91c.28.17,1.12.81,0,0s-.09-.06.14.16.4.42.6.62c.94.89-.94-1.51-.29-.4a19.71,19.71,0,0,1,1,1.86L730.44,51a14.85,14.85,0,0,1,.94,3.47l-.27-2a19.12,19.12,0,0,1,0,4.78l.27-2a19.2,19.2,0,0,1-1.31,4.83l.76-1.79a19.07,19.07,0,0,1-1.7,3.06c-.35.5-1.17,1.27.33-.4-.15.18-.29.36-.45.54-.42.49-.87,1-1.33,1.39-.22.21-.44.4-.66.6s-1.12.9-.06.08-.51.34-.82.54a22.46,22.46,0,0,1-3.3,1.72l1.8-.76a21.59,21.59,0,0,1-5.11,1.38l2-.27a19.92,19.92,0,0,1-5,0l2,.26a17.93,17.93,0,0,1-4-1.08l1.79.75a14.3,14.3,0,0,1-1.83-.93,6.41,6.41,0,0,0-.77-.51c1.45.69,1,.84.38.23-.23-.22-.43-.45-.65-.67-.61-.6,1,1.54.35.46a14.93,14.93,0,0,1-1.13-2.13l.76,1.79A19,19,0,0,1,712.31,60l.26,2a30.6,30.6,0,0,1-.13-7.22l-.27,2a15.94,15.94,0,0,1,1.09-4.13l-.76,1.79c.2-.43.41-.85.65-1.26s1-1.39.13-.31.17-.16.37-.37.52-.52.79-.77c.64-.57,1.15-.49-.35.25.32-.16.62-.43.93-.62a17.15,17.15,0,0,1,2.34-1.19l-1.79.75a20.2,20.2,0,0,1,4.78-1.27l-2,.26a42,42,0,0,1,10.74.26l-2-.26c.81.11,1.62.23,2.43.37a8.12,8.12,0,0,0,5.78-.76A7.63,7.63,0,0,0,738.76,45c.83-3.62-1.1-8.53-5.24-9.22Z"/><path class="cls-1" d="M713.2,71.33c-7.51,7.63-10.54,19.58-7,29.79a8,8,0,0,0,3.45,4.48,7.63,7.63,0,0,0,5.78.75c3.67-1.18,6.61-5.25,5.24-9.22a22.19,22.19,0,0,1-1-4.26l.27,2a23.79,23.79,0,0,1,0-5.72l-.27,2a24.2,24.2,0,0,1,1.6-5.84l-.75,1.8a22.47,22.47,0,0,1,2.7-4.65L722,84a26.37,26.37,0,0,1,1.78-2c2.75-2.8,3-7.85,0-10.6a7.63,7.63,0,0,0-10.61,0Z"/><path class="cls-1" d="M713.3,93.91c-.88.44-1.78.87-2.66,1.32a22.05,22.05,0,0,0-7.66,6.7,24.06,24.06,0,0,0-4.45,14.92c.39,10.82,7.47,21.46,17.84,25,4.84,1.68,10.49,1.46,15.4.22,5.51-1.4,9.86-5.28,12.72-10.11,4.62-7.83,5.25-18.76.49-26.68a26.9,26.9,0,0,0-10.47-10.16c-6.13-3.11-12.77-3.47-19.41-2a7.56,7.56,0,0,0-5.24,9.23,7.66,7.66,0,0,0,9.22,5.23c.86-.18,1.71-.34,2.58-.46l-2,.27a22.52,22.52,0,0,1,5.38,0l-2-.27a18.65,18.65,0,0,1,4.52,1.21l-1.79-.76a18.22,18.22,0,0,1,3.24,1.78c.52.37,1.2,1.12-.57-.46.22.2.46.38.68.57.43.38.84.79,1.24,1.21a13.64,13.64,0,0,0,1.11,1.27c-.25-.21-1.26-1.69-.5-.63.16.22.31.44.46.67a16.48,16.48,0,0,1,1.49,2.66l-.76-1.79a17.86,17.86,0,0,1,1.16,4.43l-.27-2a22,22,0,0,1,0,5.38l.27-2a21.84,21.84,0,0,1-1.39,5.2l.76-1.79a18.79,18.79,0,0,1-1.17,2.33c-.22.38-.46.75-.71,1.11-1.05,1.52,1-1.11.15-.18-.62.68-1.26,1.32-2,2-1,.89,1.61-1,.24-.19a8.12,8.12,0,0,1-1.06.54l1.8-.75a19.37,19.37,0,0,1-4.66,1.2l2-.27a22.41,22.41,0,0,1-5.61.09l2,.27a17.38,17.38,0,0,1-4.26-1.12l1.79.76a18.7,18.7,0,0,1-2.89-1.64c-.72-.47,1.49,1.25.63.48l-.6-.53a17.43,17.43,0,0,1-1.28-1.3c-.2-.21-.38-.43-.57-.65-.78-.93.18.32.41.55a11.56,11.56,0,0,1-1.08-1.49,21.88,21.88,0,0,1-1.86-3.39l.76,1.79a20.58,20.58,0,0,1-1.36-5.06l.27,2a20.35,20.35,0,0,1,0-4.87l-.27,2a18.87,18.87,0,0,1,1.17-4.36l-.76,1.79a23.18,23.18,0,0,1,1.9-3.36c-1.35,2.08-.19.28.35-.26.2-.2.64-.44.77-.7-.91.68-1.13.86-.67.54l.54-.35c1.33-.82,2.77-1.46,4.17-2.15,3.51-1.75,4.78-7,2.69-10.26a7.69,7.69,0,0,0-10.27-2.69Z"/><path class="cls-1" d="M740.1,41.12a25.06,25.06,0,0,1,1.19-3.68l-.75,1.79a23.86,23.86,0,0,1,3-5.18l-1.18,1.52a23.4,23.4,0,0,1,4.11-4.09L745,32.66c.4-.31.81-.6,1.22-.88a8,8,0,0,0,3.45-4.48,7.52,7.52,0,0,0-5.24-9.23,7.53,7.53,0,0,0-5.78.76,30.74,30.74,0,0,0-13,18.3,7.87,7.87,0,0,0,.76,5.78,7.5,7.5,0,0,0,13.7-1.79Z"/><path class="cls-1" d="M780.88,36.06a11.82,11.82,0,0,0-5.63-7.15,14.21,14.21,0,0,0-9.82-1.25,21.3,21.3,0,0,0-11.52,7.09,19.09,19.09,0,0,0-3.86,7.14,20.32,20.32,0,0,0-.2,8.78c.72,4.37,3,8.48,5.2,12.26,2.45,4.15,5.26,8.24,7.17,12.68l-.76-1.79a18.25,18.25,0,0,1,1.2,4.23l-.27-2a29.9,29.9,0,0,1-.07,7.2l.27-2a9.23,9.23,0,0,1-.44,1.64l.76-1.8c-.13.27-.34.54-.44.81s-.11.19.29-.37.51-.66.14-.27c.09-.08,1.59-1,.75-.58-.3.16-.57.33-.88.47l1.79-.76a8.21,8.21,0,0,1-1.94.53l2-.27a8.53,8.53,0,0,1-2,0l2,.27a12.79,12.79,0,0,1-2.84-.81l1.79.75a27.49,27.49,0,0,1-4.09-2.33c-3.28-2.18-8.45-.75-10.26,2.69a7.66,7.66,0,0,0,2.69,10.26c4.76,3.17,10.66,5.5,16.37,3.5a13,13,0,0,0,7.62-6.31c1.51-3.07,1.68-6.5,1.68-9.87a23.75,23.75,0,0,0-1.45-8.56,51.61,51.61,0,0,0-3.82-7.66c-2.53-4.3-5.38-8.53-7.35-13.12l.75,1.79a20.52,20.52,0,0,1-1.41-5l.26,2a13.57,13.57,0,0,1,0-2.92l-.27,2a12.46,12.46,0,0,1,.72-2.76l-.75,1.79a14.44,14.44,0,0,1,1.16-2.07c.34-.47.13-.21-.61.79.16-.19.32-.38.49-.56a9.57,9.57,0,0,1,.79-.77c.54-.5,1.31-.73-.37.23.32-.19.61-.44.93-.64A17.34,17.34,0,0,1,769,42.05l-1.8.75a12.55,12.55,0,0,1,2.63-.75l-2,.27a9.12,9.12,0,0,1,1.81,0l-2-.26a6.24,6.24,0,0,1,1.33.36l-1.79-.76c.74.34,1.53,1.24-.08-.26.53.54.36.28-.51-.76a3.74,3.74,0,0,1,.33.58l-.76-1.79a3.69,3.69,0,0,1,.21.64c1.06,3.78,5.36,6.49,9.23,5.24a7.64,7.64,0,0,0,5.24-9.23Z"/><path class="cls-1" d="M788.23,22.24A274.8,274.8,0,0,0,787,67.5c.44,8,1.27,15.91,2.35,23.82,1,7.29,2.3,15.82,9.74,19.42,4.82,2.33,10.85,2.38,15.31-.83,4.18-3,7.18-8.16,6.59-13.46a8.16,8.16,0,0,0-2.2-5.3,7.5,7.5,0,0,0-10.61,0c-1.26,1.37-2.41,3.37-2.19,5.3a8.92,8.92,0,0,1,0,1.79l.27-2a9.28,9.28,0,0,1-.54,2.07l.76-1.79c-.2.44-.44.85-.67,1.27-.6,1.09,1.24-1.31.29-.39-.13.13-.25.25-.39.37-.43.39-.16.18.82-.61-.43.18-.84.51-1.27.71l1.79-.75a9.33,9.33,0,0,1-1.79.5l2-.27a9.24,9.24,0,0,1-2.23,0l2,.27a10.48,10.48,0,0,1-1.81-.47l1.8.75a10.45,10.45,0,0,0-1.33-.68c1,.82,1.22,1,.64.49-.18-.16-.35-.33-.52-.51-.49-.57-.33-.35.5.68-.14-.19-.27-.39-.4-.6a12,12,0,0,1-.66-1.29l.75,1.79c-1.44-3.43-1.74-7.31-2.24-11l.27,2a274.22,274.22,0,0,1-2-51.79q.42-7.41,1.24-14.81a7.51,7.51,0,0,0-2.19-5.3,7.5,7.5,0,0,0-10.61,0,8.59,8.59,0,0,0-2.2,5.3Z"/><path class="cls-1" d="M782.87,63.07A233.92,233.92,0,0,0,811.55,60,7.55,7.55,0,0,0,816,56.5a7.51,7.51,0,0,0-2.69-10.26,8.62,8.62,0,0,0-5.78-.76q-3.86.66-7.73,1.18l2-.27q-9.45,1.26-19,1.68c-3.92.18-7.69,3.33-7.5,7.5.17,3.92,3.3,7.69,7.5,7.5Z"/><path class="cls-1" d="M828.43,69.69q9.36-1.87,18.68-3.9c3.19-.7,6.37-1.41,9.56-2.13a18.64,18.64,0,0,0,5.11-1.6,8.89,8.89,0,0,0,4.74-7.94c0-2.6-1.42-4.7-2.67-6.86-.7-1.2-1.42-2.4-2.2-3.56a37.8,37.8,0,0,0-9.57-10.12,22,22,0,0,0-16.48-3.64,19.32,19.32,0,0,0-9.86,5.18,24.91,24.91,0,0,0-5.53,9c-4.83,12.36-.44,26.49,6.3,37.23,5.24,8.35,14.88,12.14,24.46,12.2,3.92,0,7.68-3.47,7.5-7.5a7.63,7.63,0,0,0-7.5-7.5,32,32,0,0,1-4-.27l2,.27A24.35,24.35,0,0,1,843.11,77l1.79.76a21.42,21.42,0,0,1-2.25-1.12c-.36-.21-.72-.43-1.07-.67s-1.46-1.08-.2-.1.21.15-.08-.11l-.67-.61c-.4-.39-.76-.79-1.13-1.21-.82-.95.69.91.68.9s-.21-.29-.32-.44c-.22-.32-.42-.66-.63-1a64.26,64.26,0,0,1-3.92-7.55l.76,1.79a40.3,40.3,0,0,1-2.83-9.8l.27,2a30.71,30.71,0,0,1-.07-7.84l-.27,2a25.78,25.78,0,0,1,1.67-6.28l-.76,1.79a24.09,24.09,0,0,1,1.1-2.22c.19-.33.4-.67.62-1s.29-.43.45-.64c-.75.95-.94,1.2-.57.76.27-.27.52-.57.81-.84,1.15-1.09-1,.59-.33.2a18.56,18.56,0,0,1,2.39-1.32l-1.79.76a13.52,13.52,0,0,1,3.24-.88l-2,.27a14.69,14.69,0,0,1,3.18,0l-2-.26a15.53,15.53,0,0,1,3.79,1l-1.79-.76a18.55,18.55,0,0,1,2.71,1.45c.61.4,2,1.71,0-.07.36.32.73.61,1.09.93a27.46,27.46,0,0,1,2.06,2.12c.31.35.6.7.89,1,.74.91-.53-.66-.6-.77.14.22.32.43.47.64a49.7,49.7,0,0,1,4.62,7.5l-.76-1.79.11.39-.27-2v.4l.27-2-.09.29.75-1.79q3.48-2.82,1.77-1.91l1.8-.76a51.59,51.59,0,0,1-7.39,1.76c-2.71.6-5.42,1.2-8.13,1.78q-8,1.72-16,3.34c-3.86.77-6.43,5.56-5.24,9.22a7.68,7.68,0,0,0,9.23,5.24Z"/><path class="cls-1" d="M870.57,44q1,23.41,0,46.85a7.55,7.55,0,0,0,7.5,7.5,7.66,7.66,0,0,0,7.5-7.5q1-23.41,0-46.85c-.16-3.91-3.33-7.68-7.5-7.5-3.92.18-7.67,3.31-7.5,7.5Z"/><path class="cls-1" d="M886.42,57.92a6.51,6.51,0,0,1,.33-1.06L886,58.65a7.92,7.92,0,0,1,1-1.59l-1.18,1.52a12,12,0,0,1,2.06-2l-1.52,1.17a19,19,0,0,1,3.92-2.24l-1.79.76A19.82,19.82,0,0,1,893.23,55l-2,.27a12,12,0,0,1,3,0l-2-.27a11.9,11.9,0,0,1,2.48.64l-1.79-.76a8.18,8.18,0,0,1,1.9,1.1l-1.52-1.17a6.73,6.73,0,0,1,.89.88L893,54.1a7.18,7.18,0,0,1,.85,1.44l-.75-1.79a10.24,10.24,0,0,1,.58,2.32l-.27-2a25.65,25.65,0,0,1,.07,3.51,7.5,7.5,0,1,0,15,0,21.76,21.76,0,0,0-.69-7.19,14.17,14.17,0,0,0-5.66-7.63c-3.87-2.69-8.7-3-13.18-2.25a24.74,24.74,0,0,0-9.33,3.67c-3.48,2.28-6.77,5.53-7.7,9.74-.85,3.82,1.15,8.29,5.23,9.22,3.8.87,8.32-1.14,9.23-5.23Z"/><path class="cls-1" d="M931.93,19.1c-7.47,5.83-14.52,12.27-18.21,21.21a27.48,27.48,0,0,0-1.28,15.87c1,5.2,3.6,10.14,6.38,14.59s6.06,9,8.18,14L926.25,83A26.65,26.65,0,0,1,928,89.35l-.26-2a21.85,21.85,0,0,1,0,5.48l.27-2A17,17,0,0,1,926.91,95l.76-1.79a14,14,0,0,1-1.08,2c-.9,1.38,1.13-1.21.22-.23-.25.26-.48.54-.73.79s-.54.47-.79.71c1.56-1.52.94-.7.39-.34a13.35,13.35,0,0,1-2.15,1.13l1.79-.76a16.48,16.48,0,0,1-3.72,1l2-.26a20.57,20.57,0,0,1-5,0l2,.26a22.05,22.05,0,0,1-5.24-1.4l1.79.75-1-.43a8.07,8.07,0,0,0-5.78-.76,7.6,7.6,0,0,0-4.48,3.45c-1.75,3.31-1.11,8.49,2.69,10.26a28.9,28.9,0,0,0,17.19,2.58,20.43,20.43,0,0,0,13.77-9.16,23.65,23.65,0,0,0,3.23-15.42,31.85,31.85,0,0,0-2-8.18,56.66,56.66,0,0,0-4-8.19c-3-5-6.59-9.75-8.91-15.19l.76,1.8a27.92,27.92,0,0,1-1.9-6.69l.27,2a20.24,20.24,0,0,1,0-5.33l-.27,2a21.45,21.45,0,0,1,1.5-5.27l-.76,1.79A28.55,28.55,0,0,1,930.37,41c1.15-1.59-.85,1,0,0,.32-.39.64-.78,1-1.17.63-.72,1.29-1.43,2-2.12a94,94,0,0,1,9.25-8c1.4-1.1,2.19-3.61,2.19-5.3a7.6,7.6,0,0,0-2.19-5.3,7.53,7.53,0,0,0-5.31-2.2,8.73,8.73,0,0,0-5.3,2.2Z"/></svg>